<mxfile host="app.diagrams.net" agent="Mozilla/5.0 (X11; Linux x86_64; rv:142.0) Gecko/20100101 Firefox/142.0" version="28.2.3">
  <diagram name="Page-1" id="1tAfzIvzcuWl7hikPxeJ">
    <mxGraphModel dx="1133" dy="736" grid="1" gridSize="10" guides="1" tooltips="1" connect="1" arrows="1" fold="1" page="1" pageScale="1" pageWidth="827" pageHeight="1169" math="0" shadow="0">
      <root>
        <mxCell id="0" />
        <mxCell id="1" parent="0" />
        <mxCell id="NUPVtUFg2VGFcALaYpRz-20" style="edgeStyle=orthogonalEdgeStyle;curved=1;rounded=0;orthogonalLoop=1;jettySize=auto;html=1;exitX=1;exitY=0.5;exitDx=0;exitDy=0;entryX=0;entryY=0.5;entryDx=0;entryDy=0;startArrow=block;sketch=1;curveFitting=1;jiggle=2;" edge="1" parent="1" source="NUPVtUFg2VGFcALaYpRz-10" target="NUPVtUFg2VGFcALaYpRz-12">
          <mxGeometry relative="1" as="geometry" />
        </mxCell>
        <mxCell id="NUPVtUFg2VGFcALaYpRz-10" value="" style="whiteSpace=wrap;html=1;aspect=fixed;sketch=1;curveFitting=1;jiggle=2;" vertex="1" parent="1">
          <mxGeometry x="90" y="60" width="80" height="80" as="geometry" />
        </mxCell>
        <mxCell id="NUPVtUFg2VGFcALaYpRz-11" value="AssistantChatManager" style="text;html=1;align=center;verticalAlign=middle;resizable=0;points=[];autosize=1;strokeColor=none;fillColor=none;" vertex="1" parent="1">
          <mxGeometry x="60" y="30" width="140" height="30" as="geometry" />
        </mxCell>
        <mxCell id="NUPVtUFg2VGFcALaYpRz-12" value="" style="whiteSpace=wrap;html=1;aspect=fixed;sketch=1;curveFitting=1;jiggle=2;" vertex="1" parent="1">
          <mxGeometry x="304" y="60" width="80" height="80" as="geometry" />
        </mxCell>
        <mxCell id="NUPVtUFg2VGFcALaYpRz-13" value="JeddictBrain" style="text;html=1;align=center;verticalAlign=middle;resizable=0;points=[];autosize=1;strokeColor=none;fillColor=none;" vertex="1" parent="1">
          <mxGeometry x="299" y="30" width="90" height="30" as="geometry" />
        </mxCell>
        <mxCell id="NUPVtUFg2VGFcALaYpRz-15" value="AI Model" style="text;html=1;align=center;verticalAlign=middle;resizable=0;points=[];autosize=1;strokeColor=none;fillColor=none;" vertex="1" parent="1">
          <mxGeometry x="520" y="30" width="70" height="30" as="geometry" />
        </mxCell>
        <mxCell id="NUPVtUFg2VGFcALaYpRz-16" value="" style="shape=ext;double=1;whiteSpace=wrap;html=1;aspect=fixed;sketch=1;curveFitting=1;jiggle=2;" vertex="1" parent="1">
          <mxGeometry x="515" y="60" width="80" height="80" as="geometry" />
        </mxCell>
        <mxCell id="NUPVtUFg2VGFcALaYpRz-18" value="" style="curved=1;endArrow=classic;html=1;rounded=0;sketch=1;curveFitting=1;jiggle=2;" edge="1" parent="1">
          <mxGeometry width="50" height="50" relative="1" as="geometry">
            <mxPoint x="180" y="80" as="sourcePoint" />
            <mxPoint x="300" y="80" as="targetPoint" />
            <Array as="points">
              <mxPoint x="230" y="50" />
            </Array>
          </mxGeometry>
        </mxCell>
        <mxCell id="NUPVtUFg2VGFcALaYpRz-19" value="" style="curved=1;endArrow=none;html=1;rounded=0;sketch=1;curveFitting=1;jiggle=2;startArrow=classic;startFill=1;endFill=0;" edge="1" parent="1">
          <mxGeometry width="50" height="50" relative="1" as="geometry">
            <mxPoint x="179" y="120" as="sourcePoint" />
            <mxPoint x="299" y="120" as="targetPoint" />
            <Array as="points">
              <mxPoint x="229" y="150" />
            </Array>
          </mxGeometry>
        </mxCell>
        <mxCell id="NUPVtUFg2VGFcALaYpRz-21" value="start task" style="text;html=1;align=center;verticalAlign=middle;resizable=0;points=[];autosize=1;strokeColor=none;fillColor=none;" vertex="1" parent="1">
          <mxGeometry x="205" y="40" width="70" height="30" as="geometry" />
        </mxCell>
        <mxCell id="NUPVtUFg2VGFcALaYpRz-22" value="task finished" style="text;html=1;align=center;verticalAlign=middle;resizable=0;points=[];autosize=1;strokeColor=none;fillColor=none;" vertex="1" parent="1">
          <mxGeometry x="190" y="130" width="90" height="30" as="geometry" />
        </mxCell>
        <mxCell id="NUPVtUFg2VGFcALaYpRz-24" value="user IO" style="text;html=1;align=center;verticalAlign=middle;resizable=0;points=[];autosize=1;strokeColor=none;fillColor=none;" vertex="1" parent="1">
          <mxGeometry x="205" y="75" width="60" height="30" as="geometry" />
        </mxCell>
        <mxCell id="NUPVtUFg2VGFcALaYpRz-26" value="" style="curved=1;endArrow=classic;html=1;rounded=0;sketch=1;curveFitting=1;jiggle=2;" edge="1" parent="1">
          <mxGeometry width="50" height="50" relative="1" as="geometry">
            <mxPoint x="389" y="80" as="sourcePoint" />
            <mxPoint x="509" y="80" as="targetPoint" />
            <Array as="points">
              <mxPoint x="439" y="50" />
            </Array>
          </mxGeometry>
        </mxCell>
        <mxCell id="NUPVtUFg2VGFcALaYpRz-27" value="model IO" style="text;html=1;align=center;verticalAlign=middle;resizable=0;points=[];autosize=1;strokeColor=none;fillColor=none;" vertex="1" parent="1">
          <mxGeometry x="413.5" y="85" width="70" height="30" as="geometry" />
        </mxCell>
        <mxCell id="NUPVtUFg2VGFcALaYpRz-28" value="" style="curved=1;endArrow=none;html=1;rounded=0;sketch=1;curveFitting=1;jiggle=2;startArrow=classic;startFill=1;endFill=0;" edge="1" parent="1">
          <mxGeometry width="50" height="50" relative="1" as="geometry">
            <mxPoint x="389" y="110" as="sourcePoint" />
            <mxPoint x="509" y="110" as="targetPoint" />
            <Array as="points">
              <mxPoint x="439" y="140" />
            </Array>
          </mxGeometry>
        </mxCell>
        <mxCell id="NUPVtUFg2VGFcALaYpRz-29" value="Tools" style="whiteSpace=wrap;html=1;aspect=fixed;sketch=1;curveFitting=1;jiggle=2;" vertex="1" parent="1">
          <mxGeometry x="255.25" y="190" width="50" height="50" as="geometry" />
        </mxCell>
        <mxCell id="NUPVtUFg2VGFcALaYpRz-30" value="&lt;div&gt;Prompts&lt;/div&gt;" style="whiteSpace=wrap;html=1;aspect=fixed;sketch=1;curveFitting=1;jiggle=2;" vertex="1" parent="1">
          <mxGeometry x="320.25" y="190" width="50" height="50" as="geometry" />
        </mxCell>
        <mxCell id="NUPVtUFg2VGFcALaYpRz-31" value="..." style="whiteSpace=wrap;html=1;aspect=fixed;sketch=1;curveFitting=1;jiggle=2;" vertex="1" parent="1">
          <mxGeometry x="382.75" y="190" width="50" height="50" as="geometry" />
        </mxCell>
        <mxCell id="NUPVtUFg2VGFcALaYpRz-32" style="edgeStyle=orthogonalEdgeStyle;curved=1;rounded=0;orthogonalLoop=1;jettySize=auto;html=1;exitX=0.5;exitY=0;exitDx=0;exitDy=0;startArrow=block;sketch=1;curveFitting=1;jiggle=2;" edge="1" parent="1" source="NUPVtUFg2VGFcALaYpRz-29" target="NUPVtUFg2VGFcALaYpRz-12">
          <mxGeometry relative="1" as="geometry">
            <mxPoint x="200" y="160" as="sourcePoint" />
            <mxPoint x="334" y="160" as="targetPoint" />
          </mxGeometry>
        </mxCell>
        <mxCell id="NUPVtUFg2VGFcALaYpRz-33" style="edgeStyle=orthogonalEdgeStyle;curved=1;rounded=0;orthogonalLoop=1;jettySize=auto;html=1;exitX=0.5;exitY=0;exitDx=0;exitDy=0;startArrow=block;sketch=1;curveFitting=1;jiggle=2;entryX=0.5;entryY=1;entryDx=0;entryDy=0;" edge="1" parent="1" source="NUPVtUFg2VGFcALaYpRz-30" target="NUPVtUFg2VGFcALaYpRz-12">
          <mxGeometry relative="1" as="geometry">
            <mxPoint x="360" y="220" as="sourcePoint" />
            <mxPoint x="424" y="170" as="targetPoint" />
          </mxGeometry>
        </mxCell>
        <mxCell id="NUPVtUFg2VGFcALaYpRz-34" style="edgeStyle=orthogonalEdgeStyle;curved=1;rounded=0;orthogonalLoop=1;jettySize=auto;html=1;exitX=0.5;exitY=0;exitDx=0;exitDy=0;startArrow=block;sketch=1;curveFitting=1;jiggle=2;" edge="1" parent="1" source="NUPVtUFg2VGFcALaYpRz-31">
          <mxGeometry relative="1" as="geometry">
            <mxPoint x="510" y="310" as="sourcePoint" />
            <mxPoint x="340" y="140" as="targetPoint" />
          </mxGeometry>
        </mxCell>
        <mxCell id="NUPVtUFg2VGFcALaYpRz-36" value="exec loop" style="text;html=1;align=center;verticalAlign=middle;resizable=0;points=[];autosize=1;strokeColor=none;fillColor=none;" vertex="1" parent="1">
          <mxGeometry x="309" y="60" width="70" height="30" as="geometry" />
        </mxCell>
        <mxCell id="NUPVtUFg2VGFcALaYpRz-38" value="" style="shape=image;verticalLabelPosition=bottom;labelBackgroundColor=default;verticalAlign=top;aspect=fixed;imageAspect=0;editableCssRules=.*;image=data:image/svg+xml,PHN2ZyB4bWxucz0iaHR0cDovL3d3dy53My5vcmcvMjAwMC9zdmciIHZpZXdCb3g9IjguOTk1MzA2OTY4Njg4OTY1IDguOTkzMjU3NTIyNTgzMDA4IDEwMi4wMDQ2OTIwNzc2MzY3MiAxMDIuMDA5MzMwNzQ5NTExNzIiIGhlaWdodD0iMTAyLjAwOTMzMDc0OTUxMTcyIiB3aWR0aD0iMTAyLjAwNDY5MjA3NzYzNjcyIj4mI3hhOyAgPGRlZnM+JiN4YTsgICAgPG1hcmtlciBvcmllbnQ9ImF1dG8iIHJlZlk9IjMuNSIgcmVmWD0iMTAiIG1hcmtlckhlaWdodD0iNyIgbWFya2VyV2lkdGg9IjEwIiBpZD0iYXJyb3doZWFkIj4mI3hhOyAgICAgIDxwb2x5Z29uIGZpbGw9ImJsYWNrIiBwb2ludHM9IjAgMCwgMTAgMy41LCAwIDciLz4mI3hhOyAgICA8L21hcmtlcj4mI3hhOyAgPC9kZWZzPiYjeGE7JiN4YTsgICYjeGE7ICA8cGF0aCBtYXJrZXItZW5kPSJ1cmwoI2Fycm93aGVhZCkiIHN0cm9rZS13aWR0aD0iMiIgc3Ryb2tlPSJibGFjayIgZmlsbD0ibm9uZSIgZD0iTSAxMTAgNjAgQSA1MCA1MCAwIDEgMSAxMDguMjk2IDQ3LjA1OSIvPiYjeGE7PC9zdmc+;" vertex="1" parent="1">
          <mxGeometry x="324" y="85" width="40" height="40" as="geometry" />
        </mxCell>
        <mxCell id="NUPVtUFg2VGFcALaYpRz-39" value="" style="shape=image;verticalLabelPosition=bottom;labelBackgroundColor=default;verticalAlign=top;aspect=fixed;imageAspect=0;image=data:image/png,iVBORw0KGgoAAAANSUhEUgAAAnoAAAI4CAYAAAD9OkRrAAAABHNCSVQICAgIfAhkiAAAABl0RVh0U29mdHdhcmUAZ25vbWUtc2NyZWVuc2hvdO8Dvz4AAAArdEVYdENyZWF0aW9uIFRpbWUAVGh1IDE4IFNlcCAyMDI1IDEwOjI1OjA4IENFU1SA2OmUAAAgAElEQVR4nOzdfVxUVf4H8M8MgzylCA4imKgZWEKGJIKCWiqWaaZmVvozaS1zd91s210rNcus3H61ZVm2a/42H1aLWk1R8iFNRdR8QFFT8wlEDANJAQUBZb6/P8a5zjAz9547c3lw/L5fL16O55577vec+733Hu7MHXTl5eWUk5MD1viCgoIaOwTGGGOMeRCD5UVsbGxjxnHL48k2Y4wxxrSmb+wAGGOMMcZY/eCJHmOMMcaYh+KJHmOMMcaYh+KJHmOMMcaYh+KJHmOMMcaYh+KJHmOMMcaYh7qpJ3rJycn46KOPGjsMxhhjjLEmya2J3siRI7FgwQKX1v33v/+NVatWubN5PP7444iPj5dt050YGWOMMcZuZkITvW+++Qa9e/dGWFgYkpKSsHz5cgDApUuXYDKZXNrwxo0bceTIEZfWtZg8eTJ69eol26baGHfv3o0WLVrgd7/7nU35qFGj8MYbb7gVL2OMMcZYQ1Kc6C1ZsgSvvPIKZsyYgWPHjuGtt96CwSD9QQ2cP38ejz32GNq1a4exY8fi2rVr0rI33ngDycnJaNOmDfr374+TJ08CAHr06IH169fjww8/RLt27XDp0iWbbf7ud7/DjBkzAABlZWVo0aKF9BbtTz/9hLZt24KI8OCDD2L+/PmKbcrFWNfq1atx//33Y926daiurlYcQGulpaUOJ5UmkwmlpaWq2mKMMcYYc5fsRO/atWuYOXMmpk+fjpSUFLRo0QIPPPAAHn30UanOggULMG3aNOzevRvbtm3Dhg0bpGUDBgzAv//9bxw4cAAhISGYNWsWAPNdswcffBB//vOfUVBQgObNm9tsNzY2Vrozd+jQIXTq1Ak//fQTAODIkSO49957odPpbNaRa1MuxrrS09Pxpz/9CS1btsTWrVtlB6+uzZs3Y/HixaitrZXKamtrsXjxYmzevFlVW4wxxhhj7pKd6OXn56O4uBgPPPCA0zovvPAC4uLiEBYWhs6dO+PMmTPSsuTkZERFRSE0NBRDhgzB8ePHhYKqO9EbNWoUDh8+DMA80evatatQOyIxWvvpp59w7tw5JCcno3///li9erWq7QwdOhSA+S5obW0tamtrsWTJEptljDHGGGMNRXaid/bsWQBA69atndYJCAiQXhsMBhCR9P/s7Gw8//zzeOihh/Dee+/h6tWrQkHFxsaisLAQly5dwsGDB9G3b19cvHgRV69exeHDhxEbGyvUjkiM1lavXo3k5GT4+flhwIAByMjIsLk7p8TLywtjx44FYJ7sWSZ5Y8eOhZeXl6qYGWOMMcbcJTvRCw8PB2D+jJta+fn5ePjhh9G5c2f85z//wbRp04TXbdGiBTp06ICjR4/i0KFDiI6ORmRkJE6cOIHDhw+rvqMnavXq1UhJSQEA3H///bh48SJ+/PFHVW14eXlhzJgxOH36NE6fPo0xY8bwJI8xxhhjjUJ2otehQwcEBwdj06ZNqhvesWMHfHx8MHnyZBiNRtVP53br1g05OTm4fPkyAgMD0aVLF+zYsQO//fYboqKiVMejJC8vDz/99BNefvlltGjRAu3atUNtba3qt29ra2uxdOlSdOjQAR06dMDSpUtV3RVkjDHGGNOKQW6ht7c3pk2bhrfeegvh4eGIj4/HwYMHsXfvXvztb3+TbTgkJARlZWXIzc2F0WjEvHnzUFJSgtraWnh5eSEkJAQ5OTkoLi6GTqdDSEiIzfqxsbH49ttvpUldly5dsHTpUnTp0sXmqd+625RrU056ejq6dOlicwfv008/xaeffoq///3vQm1Yfyav7lu4/PYtY4wxxkTNnTtXqN6f/vQn2eWyEz0AeO655+Dn54dZs2YhNzcXUVFRmDRpkuKG+/fvj6effhr9+vXD7bffjrfffhtz5szB5s2bMWDAADz//PMYPXo0+vTpg9dffx1PPfWUzfrdunXDjBkz8NJLLwEAoqOj8eOPP+KZZ55xuk2lNuWkp6fjsccesykbNmwYpk6digMHDgi3Adh+Jm/s2LFYsmQJ0tPTMXz4cOF4GGOMMXbrUprAidKVl5dTTk6O6gccmL3S0lK0aNECer3tO+Imkwnl5eVo2bKl03VzcnIQFBRU3yEyxhhj7BaieEePiXM2kdPr9bKTPMYYY4yx+uDW37pljDHGGGNNF0/0GGOMMcY8FE/0GGOMMcY8FE/0GGOMMcY8FE/0GGOMMcY8FE/0GGOMMcY8FE/0GGOMMcY8FH+PXhNy8eLFxg6BMcYYYx5Emujl5OQ0ZhyMMcYYY0xjNnf0dtZEN1YcjDHGGGNMwaSevkL1srOzAfBn9BhjjDHGPBZP9FR6eUAr6ccTeWq/bjZq9oO7+8zR+rd6Hhzf+wNmjeys+Tg01Lje6vvvZu9/feXf19+WalpPa19/Wyr93Mxc3W9q1yMilJSUIDc3F7m5uSgpKQER2dXjhzFUenfjbwBu/hMJa9oseXarbr+xrf/iHTw17XPc2a1PY4fiklt9/93s/W/s/Bs1vGWjbvdmn+g1VP6VlJTYPMR54cIFEBFCQkJs6vEdPcYYq+N8wQl0vCfR5fVv9l8Em3r8TT0+d7mbfzf7RMnTaZW/ly5dEirjiR5jjNVRXXkZXoZmjR0Gu0Vx/jER165dEypz+NbtgS3fIvObT1FScBLNW7VB3yf+hPiHxkjLD21bjY2L3kVJYS7ad4nH43+di6A2EQDMM9X/eX0h1v3fLJQWn0Voh7sw8i8fIbzTPUKBf/z7B/DQ+BmI6v6AOeiaarz9ZAz++sVOBAQaUVNViTX/fA2Ht2cARIjp/QiGTJwFbx8/aft1b5s6KnPm5QGtMOT3b2Hzsg+h0+lw7/3D8fDzM2Hw9hFa32SqxZYvP8Ketf/BlYoydEl8EMNeeA/N/AKkOnLjV3jyINb931soOLYf165WI/yOGDww+s+4KyFFuH05Su1b4nO2/+TG/71x8Xjm7a9gvL2TzTbPF5zAwtfG4G8LdwvFKDc+Sl4e0Apd+w7DiX1bkDR8As4c2YuCn7Px0PjXkPjIM0Lj9/KAVhg8YSa2fzsfFeUX8OAzU9F75B8AKI+/0vaV+mf9m56jnL1WU42M+TNwcMtKEBEeeOpFoXERXV9p+0rx116rwXfz30DOD8tBBPQb8xJWz5tq05bc+IqMj9L4yhE5f9QdCzVvwzhav24bcseXu8e30v5TOj8rxe/u8WPpv9zxLXf9UYpPqf8i+19ufETOn3LqO/+s7+RZv7Z+K/Zs4VUcPHwFlVdMCGzhhfhu/mgZ6CW7jkVp2TUcOlyN3y7WwmQitGzhhbs7+yCsjbdwjGd+qcGxE9W4fMkEX18d7oryRcf24pPas4VXcfhoFS5V1MIYbEB8N38EBOiF4nMnfpHrm8jx5+i16PnBVXZ39Lav/Bw//OcfeOQPb2Pa10cw7s0lyD9se4E+8MNyjH1jEd749hQi73sAK+b8xXb55hV49t3leH35CXTpOQgrP54iHFCPh5/G7u8WS/8/+uN6RNx9HwICjQCA7xf9HZcu/IoX/5WJF+dnorT4F3y/+H9VdVpJ7oEs/PnzbXhx/jZcLC7A5i/nCK+btfyfOJWzDRPeX4mXF2dD72XA+oXv2NSRG7/Fb4xDXMoovLo0B9O++gkDU19F1vLPVLUvR6l9QH7/yY3/XYkDkXtwu902cw/uwN2JDwrHqJRfShKHpCJ11lJsXPy/6DNqEp55Jw1b0j4GID5+J/ZtwXPvr8Sry3JwbM8mqVxkfbntK/Xv3Y2/yZ7YN/3nPZQWn8WL87fhxfmZOJWTpWpslNZX2r5S/JuXzUHJL7l44Z9b8NKCLOQecByfs/FVah9QHl85SucP6/6LjEVdjtav24bc8eXu8S20/2S2rxS/u8cPIL9/la4/SvEp9V/k+iE3PiLnTzn1nX+jhreUJmiW13UnbGfO1qBv0m0Y9nAgwtt4I/vAFYfrO7J9VyXaR3hjyIPN8chDLRDTxRfHT1YLx3citxpHf65Gt65+eOThQCT3vA0lv9nfgZJzpqAGSQkBGD64JUJbeyM7p1I4PnfiF7m+Ke0zd88PrrKb6GUt/yce/9tcdIhOQDNff4S0i8TIv3xkU+d/Xl8I4+2d4O3jh6ThE5B3aKfN8kd+/zaCQtuhmV8A+o6ahMKTh4QD6tb/cZzcn4nLpSUAgP2bvkG3/o9Lyw9lpmPw87PQPLg1mgeHYsjEWTi0dZWqTisxtx+K5sGtMfj5Wdi/6RvhdXd/txgj/vwBgtpEwK95Szz07Az8tG2NTR258dNBh6L8Y/jlxAFcrb6CO2KT8Oz/rlDVvhyl9gH5/Sc3/ncnPojcg+a+LJ01Hl/NnggAyDu4U9VETym/lLSP6YF2d90HAOh4TyJuj4pFeck5AOLjN/zFf8DY9g4EBBrx7LvLpXKR9eW2727/cn5YIY1/i1ZtMPj5N8UHRoP1Afn49238Go/8/m0EGsNwW1AIHp4w02EbzsZXqX1AeXzlNMT5Q4nc8eXu8e3u9pW4e/wA8vtX5PrjDpH9Lzc+IudPd7df37rd44cAfz0MBh3uivRFaamKiRYBZeW1uFhai9paICTEgL7JtwmvfvxkDXrE+cMYbIDBC2h+mx7xcf6q4u+VEIDbbtPDywuI7OSD89YTRaX43Ihfq+ubEneOT2fs3rq13C505pcTB7H28zdw9sQBXLnk+AOfgSHh0mtvHz9crb7isJ4jPv63ISZ5CLI3fIkeg8Yi79CPeGrqfGn5pQvFaNm6rfT/oNB2KL/wq3D7Iqzbb9m6rfBFBDCP3/8+3d2mTKe7MZ9WGr/fzU7D1q8/QfqnU3H+7Ak0870Nw154F137DhNqX4lS+4D8/pMb/4739MTqedNgMtXiVE4WdHodiEw4l3sYHWIShOITyS8l1m+zW17XXrsKQHz8gkIdv1Ussr7c9t3tX/mFX+3GvyHXV4q/rKQQLUNvl/5vvS1rzsZXZHzkxldJQ5w/lMgdX+4e3+5uX4m7x4/S/lW6/rhLZP/LjY/I+dPd7dc3P78b+8vLC6itFV+3T9Jt+Pl4FfYfvIJLl2th8NIjLtYP7dqKvXVbWWlCixZeakOWXCytxcGfruBiWS1qauy/RkQpPnfi1+L6JsKd49MZu4ley5C2KMo/htujYh2usHTW7/DAUy9izIwv4HdbIK5cKsUbwzs5rOuqhMHj8NXfJ8I3oAXuTkiRPr8AAM2DW6O0+BcY294BwHxiaB4cKi339vHF1eor0jql539RvX3b9n9B8+A2dnW8fXxxraYahma2n90LCo3AHz5aC7/mjm9/K42f9W+wptprOLh1FVZ+PEU6kSi1r0SpfSVy4+9l8EZIuztxcMtKhHeKBhHh4JaVaB0RBS+D2ImgvvNLdPx0Op1b6zvjbv9atAqzG3813F1fKf5AYzgu/noGIe0ize0XOW7f2fjW9/5XOn9oRafTgYic9tMZd/NLK87id/f4Udq/StcfpfiUuLv/6/P8qSWdDiAy/6sl6ztwRISCs1ex78AV4Ymev58OZZdqEdxSfrLn5QWYagF9nWo7d1fi7s4+6JngjWbeOtTUEFZmlAnH5078WlzfLFzNX1fZ/SqW/NhE/Pf9F5B/ZA+uVl9BydlT+Pajv0rLa6oqcVtLI5r5+uHir2ewcq777x/X1e6uOHj7+GHDwtm4p89Qm2UxvR/Bd/Nfx6ULxbh0oRgZ82fgnt6PSMvDO92DzP/OQ01VJUqLz2LNZ9NVb3/t52/g0oViXL54Ht/Nfx2x/UbY1Qm7IwZ71y+DyWT761DC4HH47z9ewG+FeaipqkTuwe34v1dGSsuVxu+ffx6CIzvWoqKsBNeu1qCmqtLmpKrUvhKl9pUojf/diQ9iw6LZiO03ErH9R2L9wndU3dau7/xyd/zcXd/d/sX2G4Hv5r+OyxfP49KFImTMn9Gg6yvFHzdgFFbPm4ay84W4XFqCtQvUvTVc3/tfKX+10sIYhp93bbA7PyhxN7+04iz++s5/peuPUnxK3N3/9X3+1Iqvrx7niq7CwXfnumVz5mUUnruK6hoTak06XKsFvFXMcaLu9MHefZUouXANtbXA5csmZOfY37FqGeiFvDPVdvFfqzXBp5kOBgNQUWHCvoO26yrF52787l7fLFzNX1fZ3dFLGj4BAYHBWPXJyyg5ewrNg0OR8vSNg3HUlE+x5p/TsWTmMwgMCcdD46cj54fldZtxW8LDTyNj/gzcGXe/TfnAca9g9WfT8OFzvQEA0UmDkPL0y9LyYZPfw3//MRk//OcfaBl6OwY9OwOHMtNVbfvOuL74YHwv6PRe6Hr/o+g/xv5E8+if3kXa33+PlR//DUQkfaAyacQEAMAX055C2flfEHZHNPqNufFhY6XxG/D0FGz5cg6++vtEeHl5I6JLd4x9Y5G0XKl9JUrtK1Ea/7sSBuDbj/6CmN5DQERYNXcKOvfoL9x+feeXu+Pn7vpK/VN66q7/mL8iY/4MfPhcMkwmEx4aPx1HdqwT3r7S+krbV4r/gdEv4rv5b+Cjiean5lOenoIjO8Xjq+/9r5S/Wnn4uTew8qO/oazkHIhMwh+qdze/3H1q08JZ/PWd/0rXH6X4lPrv7v6v7/OnVu6N9sW+nCu4cqUCBPEvQHb01K71ul3u9sXPx6rwY3Yt9ABatTIgKUHsiXDA/Jk6Hx/d9bdOTfD10SHmbvu/29rtXn/s3luBfQeugOhGDD3iApDz0xXs2GWCn78e90T74ExBjXB87savdH0TPf5cPT+4SldeXk45OTkAgJ010fW6MTVyfliOA1tWYNybSxt0u2q+ioUxJq+s5Bw+e/FhvPKf/Y0dCmOMeYRJPc2T4+PHjztcHhUVBQDIzs4G0ES/MPna1WrsWrMIMcna39JmjNWvr2ZPxPmCk7hyuQwbF7+L6KSHGzskxhi7ZTXJid70h2+HoZmPw8/GMcaatqju/fDvqU/gvXHxMNVew8BxrzZ2SIwxdsty+JcxGtvfvz/faNvmt20Zc09cyijEpYxq7DAYY4yhzkTv9z3UPSLMGGOMMcaarib51i1jjDHGGHMfT/QYY4wxxjwUT/QYY4wxxjwUT/QYY4wxxjwUT/QYY4wxxjwUT/QYY4wxxjwUT/QYY4wxxjwUT/QYY4wxxjwUT/QYY4wxxjwUT/QYY4wxxjwUT/QYY4wxxjwUT/QYY4wxxjwUT/QYY4wxxjwUT/QYY4wxxjwUT/QYY4wxxjwUT/QYY4wxxjwUT/QYY4wxxjwUT/QYY4wxxjwUT/QYY4wxxjwUT/QYY4wxxjwUT/QYY4wxxjwUT/QYY4wxxjwUT/QYY4wxxjwUT/QYY4wxxjwUT/QYY4wxxjwUT/QYY4wxxjwUT/QYY4wxxjwUT/QYY4wxxjwUT/QYY4wxxjwUT/QYY4wxxjwUT/QYY4wxxjwUT/QYY4wxxjwUT/QYY4wxxjwUT/QYY4wxxjwUT/QYY4wxxjwUT/QYY4wxxjwUT/QYY4wxxjwUT/QYY4wxxjwUT/QYY4wxxjwUT/QYY4wxxjwUT/QYY4wxxjwUT/QYY4wxxjyUwfo/zZs3b6w4GGOMMcaYgsrKSlX1+Y4eY4wxxpiH4okeY4wxxpiH4okeY4wxxpiH4okeY4wxxpiH4okeY4wxxthNxmAwCJXxRI8xxhhj7Cbj6JtSHJXZT/0YY4wxxliTZjQaodPpUF5eDgBo0aIFWrVqZVePJ3qMMcYYYzcZnU4Ho9EIo9EoW4/fumWMMcYY81A80WOMMcYY81A80WOMMcYY81A80WOMMcYY81A80WOMMcYY81A80WOMMcYY81A80WOMMcYY81AN+j16Op0OAEBEDblZabvWGjoGOU09vptNY+WZM67u36baj6YSj6s8pR/O6Kab/6W33Ksn2k5DaWrxaM3V/lnWs6blGHn68XIr0HSid/XqVQQFBUGn0+HChQvw9vbWsnmXWSeoo4uuO7Q4CJpyfKLx8EnAufrcv8yxpnxxqu8Lc1MkMolZeRT4aAew/5z5/93CgFf7AgPvbNz4LMue6w7MH3b99UpgwV7n6zQk6+07yq2mpCkfl2rcbP3Q9K3bH3/8ERUVFbh8+TJ27dqlZdOskRCRzY9SeVPQFGNyhaf0g9mit278NGUNGePrm4DhS4F72wCHXwAK/gYMvRsYvLhhti9iW77V69ONFkaD4/PQzU/TO3obN26El5cXAGDTpk1ITk7WsnnGGGMeZscZYNYW4JG7gDmDb5T/uRcQ5NtoYdkpLAfOV5hfn7vUuLEwpoamd/Q2bdqEmJgYREdHY+PGjU7rLVmyBJGRkfDx8UF0dDS+/fZbm+U1NTX4+OOP0bNnT4SGhsLPzw9RUVEYO3as3Z3CzZs3o0+fPggICEBAQAD69u2LrVu3uhS/Tqdz+Naao/K6ZZb/162Xl5eH0aNHw2g0wtfXF/Hx8diwYYNL8cXGxkKn02HVqlVS2Q8//ACdTofo6GiX2tSalvsjJiYGOp0O69evl8rWrl0LnU6He+65x66+9T5wtB9F80pNHmzfvh0jR45E27Zt4ePjg6ioKEyfPh3V1dUu9VmkH3WXy9XXMv8ssrKypH0cGhqK1NRUlJWV2dRRyoOIiAjodDocOnTIrv0DBw5Ap9Ohffv2qmMTPS5F+1Ef4yci7yIw+mvA+A7g+wYQ/xmw4aR9vZVHgZiPAZ/XgU4fAAv3OW5PtB5gfvvP+seR/FIgdTkQ/i7gPxNI+CeQZr8r7dpw1O68XQAR8Hy8/fqpcfZlWflAnwVAwEwgdLY5jrIq2zrb84GRXwJt3zX3OepDYPpGoPqa+vgsekaY7+plngZ6RdgvB4DNuTdiC5gJ9F0AbM2zrye6P0TzoD6InodEjqP6uF5a1icizJw5E2FhYYiIiMCcOXOkOqLn5/z8fKSmpiI8PBz+/v5ISEhAWlqa023K9UPN/EWJ3HlSlfLycsrMzKTMzExyx6VLl8jb25uee+45evbZZ8nb25suXbpkUwcAAaBu3brRyZMnKTc3l2JjY0mv19OePXukeqNGjSIANHXqVCooKKDq6mrKzc2lL7/8khITE6V627dvJ4PBQLGxsXTq1Ck6deoUde3alby9venHH390GKclBjXLXFmHiCg/P59CQkKoQ4cOtH//fiosLKTevXuTwWCgnJwc1e198MEHBIAeffRRqeyPf/wjAaDXXntNdXuukGvPlf0h58033yQAlJqaKpU9/fTTBIBmzZqlOkbRvFKTB/369aONGzdSZWUlnT9/niZPnkwAaPz48apic6duZWUlxcfHEwCKjo6Wyl3JP5F4kpOT6ciRI1RaWkoTJkwgADRx4kSpnkgePPXUUwSAPv30U7vtfPLJJwSARo8erTrGurG60w+tx89hLNPMP9byLxKFvEPU4X2i/YVEheVEvT8nMrxGlHPuRr3dZ4n004liPyHKvUB0ooSo61z7NkXricRGRHT6enzBbxEtP0xUVkV0tJho/Ar1bRGZ+4lp5n7KsbSRPJ/oSDFR6RWiCSvNZRNX2dbt939EG08SVdYQna8gmrzGXM9ZjHLxWZa9vYXoxQxzW29vsV9ne755H8V+QnTqN/NP17lE3jOIfiy4UU90f4jmgWg/XKV0PlQ6jkTaIlJ/vFnamjt3Ls2bN4/Ky8spJyeH2rVrJ9UROT+fPn2aQkJCKDg4mJYvX05lZWV09OhRp+dwpX6IXmdEODtPVlRUCP1Y5naaTfTWrFlDAGjBggX0+eefEwD67rvvbOpYBicjI0Mqy8jIIAA0fPhwqczPz48A0KpVq6iystLpNocMGWLXXnp6OgGgoUOHOlynISd6qampBICWLVsmlWVmZhIAGjFihOr2ioqKyGAwkLe3NxUXF5PJZKLw8HAC4PTC06xZM2rWrJnDZa6Qi8+V/SHn+PHjBIACAwOpqqqKqqqqKDAwkADQ8ePHVccomleu5IFFWVmZFLOatl2tazKZaOTIkQSA2rRpQ6dPn5aWuZJ/IvFkZWVJZWfPniUANidXkTyYN28eAaCnnnrKbjtPPvkkAaDPPvtMdYx1Y3WnH1qPn8NYHFyYU5eby5YduFGWmWcuG7H0RtnwpeayjGM3ytKP2rcpWk8kNiKicf81l3+2S6iLsm0REfm8bl5Wc02sjawbKU5ny8xl7f5Xft2yKnO9QCe/H4pM9LadJrrvU6K4T2/sD+t1hix2Ps5Dl9woE90fonkg2g9XKZ0PlY4jkbaI1B9vlrZmz55tU75hwwanfXF0fh43bpzq841cP0SvMyKcnSfVTvQ0e+t206ZNAIAePXqgR48eAOD07VvLcgCIjzffr9+378a9a8tn+x599FE0b94cd911F5588klkZGTYtLNz50679hISEmyWNaZ169YBAPr37y+V3XvvvQCA7Oxs1e21bt0agwYNwtWrV7F06VLs3LkThYWF6NSpk9RuXUFBQQgODnYhevW03h+RkZHo1q0bysrKsG7dOnz33XcoKytDXFwcIiMjVbcnmleiTCYTPv/8cyQmJiIkJAQ6nQ6BgYEAgPLycpfaVGvatGn473//C39/f6xevdrm7U6t88+iW7du0uvw8HAAwC+//CKVieSBZV9kZWUBMJ8HevXqBcD8dot1nfqi1I/6Gj8l646b/+3f6UbZvWHmf7MLb5RZXve4/UZZQjv79kTriVp/wvzv4M6ut+GObuE3Xoc3N//7i9XhZiLg871A4j+BkHfMb8MGzjIvK3f9ExXocTtwrAT4+bztWFrsLLhRz8IyzpZlgPj+EM2DxqZ0HIly9XgbMGCAzf9TUlIAiJ+fLR8NGjx4MLSg5XVG7jyphqYTvYCAAHTp0gXR0dEICAiQJn91WQYbAFq2bAkAKCoqksrS0tLwyiuvICYmBkSEY8eOIS0tDUOGDLF5/720tNSuvaCgIADAxYsXteqay0pKSgCYk99gMMDLy0vqb0FBgdyqTo0bNw4AsHDhQu+gdx8AACAASURBVCxfvhwA8Nhjjzmt36pVqwab6NXH/njyyScBAF999RW++uormzK1RPNK1JQpUzBhwgS0a9cOe/bsgclkQk1NDQA0yFNqixcvxuzZs6HX67Fs2TJ0797dZnl95B8A+Pv7S68tn00xmUxSmUgexMTEICgoCAUFBdi9ezcOHz6MAwcOYO/evSgoKEBQUFC9f+5UqR/1NX511f34U0ml+d/wdwHDDMDrNaDl9adfC6w++lR82fxvoM+NMkcPL4jWE2WJr3WA621Ya3ObbbtK/K2+tcsydiarw23KemDCSqBdILDn94BpFlAz07zMncOymRfQvS1wX1vAx8FjjKXXPyfoaJwvXrlRJro/RPOgsSkdR6JcPd46duzosFz0/GzZbuvWrVXH7IiW1xln50m1NJnoFRcX49ChQ6ioqIDBYIDBYEBFRQUOHjyI8+fP29W3/qCm5aIQFhYmlQUFBWH27NlSm1u2bJFm2++//75Uz5IE1u1ZLiSWZWro9ebhsE6CiooK1e1YGI1GNGvWDNXV1bh27Rpqa2thMplARKitrXWpzUceeQStWrXCgQMHsGDBAgDyE73Dhw/j8OHDLm1LLa33BwA88cQTAIDVq1djzZo10Ol0GDVqlEttieaVaB588cUXAIC5c+eiQ4cO0Ol0OHfunEuxqbVt2zY899xzAIAPPvgAjz76qF2d+sg/ESJ5oNPppN9MX331VfTv3x8PPPAAXn31VQBAUlJSo3/nYH2PX+VV87/Nm9XZrr95UlH9BnDtTaB2lnmyQm+ZX1u0uX43q8zqLtXFOg8lqKknynj9ul7s+qnRhuXBhn0a3aX64vrNn7mPAB2CzJNBrZ6S3TweyHzW8bKW1ydrjsa5pdVETnR/iOaBp3D1eGvVqpXDctHzs9FoBGCex2hB9Dojwtl5Ui1NJno//PADiAiDBg2SvnPnoYceAhHhhx9+sKu/e/du6fXeveZvnax7N8LC19cXffv2xZIlSwAAFy5ckJYlJibatWd5qqVnz54O27PcWnZ0h8ky2SwsvHHG2b9/v8N2LJo3Nx+1VVX2R+qgQYNQU1ODzMxM2TZE4wOAZs2aSXe0ysvL0a5dO+nt78bmyv5Q0r59eyQmJqKiogKVlZVITEx06WnMuuTySjQPLBNBPz8/qWzt2rWy21XavyJOnTqF4cOHo6amBpMmTcLkyZMd1nMl/7Qgmge9e/cGYD5/DBs2DMOGDZM+7mFZ5iq541KU1uP32W7b/5/8zfzv3SF1thsF1NSan+6U0/36W5h7zt4o2+XgxodoPVEDr39qIuOY+DrNr9+9qrpmv2zi9Xf4LV9AbG2R/OnXIcuvZ35Wd93WnpBfRy4+UYnX337d7WCce1o9pSu6P0TzwJrlrWzrO4hNidbXSzmi5+eBAwcCgKq3VkXPL3LXGVGOzpOqafEwxrPPPksA6P3335fK3nvvPQJAzz33nFQG2D51m5eXR3FxceTl5UXZ2dlSvfvuu4/+9a9/0dGjR+nKlStUUFBAkyZNIgD09NNPS/W2bdtGXl5edk/3GQwG2rFjh8NYLe288847dO2a7ad/Lf2YMGEClZaW0tGjR6l3796yH7zs37+/9BDK1atXbZYVFBRQWFgYRURE0OrVq6m0tJTOnj1LaWlp1KtXL9XxWezZs0eK6aWXXnJYx0IudlfItefK/hDx4YcfStudM2eOyzGK5pVoHowdO5YA0JQpU6i8vJw2b95MkZGRsmMksn+V+nHXXXcRABoyZIhsG67knyvx1C0XzYOsrCwCQHq9noqKiqioqIj0ej0BoO3bt6uOz5rccSnaD63HTz+daPr3REWXic5dMn9AH9OI5tV5qKGgjCjs70QR7xGt/tn8dOnZMqK0g0S9/nWjXvYv5jbjPiXKu/705r0Ont4UrWc3Hk6W510gMr5tfup2xWGi8iqiY+ftn3y11v/f5rYW7CW6Wmu//OX15uV/ziD6pdzc5kc7zE+sKsVTt3zsN+b/T1lnbmdzLlHkB/L9lYtPdLvbThN5OXjq1vAa0Y78G/VE94doHlibtNrcxjtbiK45GGdXiB4vSuVE2l4vla5toufnvLw8MhqNFBwcTCtWrKDy8nI6duyY0yeHlfohep0R5eg82ShP3Xbs2JEA0L59+6Syffv2EQDq2LGjVGYZ4EWLFtEdd9xB3t7eFB0dTatW2Z4hsrOz6Q9/+APdfffd5OvrS0ajkRITE2nu3LlUU1NjU/f777+npKQk8vPzIz8/P0pOTqZNmzY5jfXy5cv0wgsvUNu2bUmn09ns8N9++43+53/+h4xGI/n7+1OfPn1o+/btsgl14sQJSklJoRYtWjisV1hYSBMnTqSIiAjy9vam9u3b05gxY5x+3YhcfBYmk0na3s6dO532lahhJ3pE6veHiF9++YX0ej3p9XoqLCyUjcvZD5F4XonmwcWLF+mZZ56xqbd3717ZMVLavyL9EKljoTb/5Kg5sYvkQXV1Nfn6+lJycrJUlpSURL6+vlRdXa06Pmtyx6Wafmg5ft+fND+ZGf538wQm8gOi97YRmUz2dQvLzROniPfMddu/RzTma9uv6SAiWnmEKPojc507/kG0aJ/jiYloPUuZsx+L3AvmCVXobCLf14ni55mfHHXmRAlRyhdELd50PnFKO2j++pAWb5qfjr1/AdH6E/ax1VW3/OIVomeWmyej/m8Q9fmcaO8v8hM9ufhEt0tk3sdJ84n83jD/JM8n2nTKfl3R/SGaBxaXq4leWEPU9l0i3XTXn8BVcx5ytq4jWl4vla5Fas7Pubm5NHbsWAoNDSVfX1+Kj4+n9PR0p23L9UPN/EWEo/Ok2ome7vp3zwBw/+0S1jB27NiBpKQktGvXDvn5+Y3+WSbGGGOMNYzKSrEnlyxPK2v6lzFYw1i6dCkA84MKPMljjDHGmDM80bvJ/Prrr1i2bBn0ej3Gjx/f2OEwxhhjrAnjid5NJiwsDDqdDh9//DHuuuuuxg6HMcYYY02Yg699ZE0ZNcAX8TLGGGPMM/AdPcYYY4wxD8V39BhjjDENWT8kx+/CNL5bfX941ETPsjNvxR3JtOPoSWZHOSVaT+12OX8Zu7U0xERE6/NVU3KrT+SU8Fu3btLpdPwVJx6Grv8ZP6UThmg9T9RYec/Hm2M387hYYj927MbfVDt27NhN3SfGmhKPmujdqhddxhi72X399dfS67S0tEaMxH1N8ZfAphZPQ2qK+6MhedREjzHG2M3JenJ3s0/0GGtKNJnoWW6xL168GHfeeSd8fHwQExOD9PR02fpEhJkzZyIsLAwRERGYM2eOVGfz5s3o06cPAgICEBAQgL59+2Lr1q1O27L+cSQvLw+jR4+G0WiEr68v4uPjsWHDBrt6+fn5SE1NRXh4OPz9/ZGQkODwpFN3W0rbd1dERAR0Oh0OHTpkt+zAgQPQ6XRo3769VCbaX1Gi47J9+3aMHDkSbdu2hY+PD6KiojB9+nRUV1dLdSzjlJWVJe3j0NBQpKamoqysrF7jE80rrYmMi8WSJUsQGRkJHx8fREdH49tvv3WrHyLHm2h8onmvdf6Jblfr/SuaV9YxyY2z6Lg09f2hJp9FHT58GIcPH8ZPP/2EI0eOOKxz4MABDBo0CM2bN4e/vz8SExMdXmesx2Hr1q3o2rUrvLy8HI7VtGnTEBwcjK+++gqxsbEIDQ3FmjVrbNpbs2YNBg4ciNatW8PHxweRkZGYPn06ampqnG7X2fWAiDBlyhS0bNkSHTt2RGZmpivDZaOsrAxTp05Fly5d4Ofnh9DQUAwaNAjfffedS+2J9Leqqgrvv/8+4uPjERISAn9/f9x111343e9+hz179qiuJ0rN+InOD0T379tvv43g4GDcfvvtWLFihdN2RfJPdLuO8lS18vJy6Q/fugrX/6hvt27d6OTJk5Sbm0uxsbHk5eVF2dnZTuvPnTuX5s2bR9f/3i61a9eOiIi2b99OBoOBYmNj6dSpU3Tq1Cnq2rUreXt7y/4xcTj5I8f5+fkUEhJCHTp0oP3791NhYSH17t2bDAYD5eTkSPVOnz5NISEhFBwcTMuXL6eysjI6evQojR8/XvU2tfbUU08RAPr000/tln3yyScEgEaPHk1E4v0VpWZc+vXrRxs3bqTKyko6f/48TZ48mQDY1LWMWXJyMh05coRKS0tpwoQJBIAmTpxYb/G5klei+1epnppxqXsc6fV62rNnj8v9UDreROMT7a/W+Se6XVfPG86oPR8ojbOacWnq+0NtfHIssQOgGTNm0GuvvWZTZnH06FG67bbbbJZZflatWuW0TaPR6LA9y/+9vLxs/gVAPXr0cNqe9c/UqVMV69U1f/58m+WhoaGy9ZUUFxdTZGSk0xjlxtsZkf4OGzbMaT3rtkXriVIzfqLbE+lvenq6zTJ/f3+h7TrLP9HtOsrTiooKoR/L3E7TiV5GRoZUlpGRQQDo8ccfd1p/9uzZNuUbNmwgIqIhQ4bYtWcZ5KFDhyrGUVdqaioBoGXLlkllmZmZBIBGjBghlY0bN44A0GeffSbQa/ltam3evHkEgJ566im7ZU8++aRN3KL9FeXKuFiUlZURAAoMDJTKLGOWlZUllZ09e5YA2Ew+tI7PlbwS3b9q80BuXBwdR8OHD3e5H0rHm2h8jtp0ROv8E92uq+cNZ9TmvdI4uzMuTXV/iMYnx/oC17lzZ+rcubPDC6Pll10AtHnzZtq+fbv0f7mJ2bBhw+jUqVNOt2vdjuV1cHCwTd1BgwbR2rVrqaioiLZs2SLV79Spk2Kf6urVq5e07JNPPqGPPvrIrYnP73//e2nd++67j7Kzs+nKlSt08OBB2fOB3LZE+ms90Vm+fDlVV1fT2bNnaeXKlZScnKy6nihXxk9puUh/H374Yan8448/pg8//FBoAucs/0S36yhPG3Wid/78eamsuLiYAFDHjh2d1re+S2GtVatWdu0VFRURAAoJCVGMo642bdoQACoqKpLKLCem9u3b29U7c+aMbH9Ftqm1gwcP2kyEunfvTj179iQionbt2hEAOnToEBGJ91eU6LjU1tbS/PnzKSEhwe63GJ1OJ9WzTlYLk8lEAEiv19dbfK7klRYTPbXj4ug4st5vavuhdLyJxifaX63zT3S7rp43nFF7PlAaZ9Fxaer7w5X45Fiv7+jHwvrOjZeXF+l0Oun/vr6+Ttu07rejOteuXbN7bTAY7OpnZGRQUlKSTdvNmjVT7FNdLVq0kJYVFxdLOerqtaRt27bSuvv27VOsL7otpf5afrGynLe7dOlCf/3rX+no0aM27YjWE+XK+In0Wam/t99+u812f/31V6ftiuSf6HYd5WmjTvRqamqkspqaGocHoHX9kpISh+1ZblE6as/RAVi33boMBoN0cvDy8iK9Xi+dJKwnFpZ6VVVVQv2W26bWTCYTBQUFEQDatWsX+fn5kb+/P+3Zs4cAUFBQEJlMJiIS768o0XH5y1/+QgBo5MiRlJeXRyaTSdpv1mPkbMxcHUvR+FzJK9GY5OqpHRel40htP5SON9H4RPurdf6JbtfV84Yzas8HSuMsOi5NfX+4Ep8cRxdLR2WWfjj7UWrT2XblXhOZf9kaOHCglEeWX6xdnVhY9+Pq1at09epVoXidsW6vsrJSsb7StkT7W1ZWRtOmTbO7A+vj40Pffvut6nqu9Fd0/OSWi/a3WbNmwtsV2Z+i23WUm03ujp6j3xiVBkDuN3Oj0agYR11t2rShZs2a0bVr12T70ZTv6BERDR48mABQv379aMiQITR48GAaMGAAAaAhQ4ZI9UT7K0p0XIKDgwkAnTt3TirLz8+XTVxrro6lFnf0nOWVaExy9dSOi9KdcbX9UOqDaHyibWqdf6LbdfW84Yyrd/Tk2hMZl6a+P1yJT47cxc26LCQkxOExItqmszpyr4mIEhISpLIDBw5QRUWFWxMLS15Z+uHuHb2wsDBpXZE7et7e3lJ9RxNDV/pbXFxMb7/9tlQnKirKrXpyXBk/ueWi/bXerpo7es6IbtdRbqqd6Gn69Sq7d++WXu/duxcAEBcXp7qdxMREu/Z27doFAOjZs6fq9gYNGoSamhrFp5sGDhwIAMjIyBBuu3nz5gDMTxbJ0eKJ3N69ewMAfvjhBwwbNgzDhg3Dxo0bbZYB4v0VJToudP07ivz8/KSytWvXahKDHNH4XMmr8PBwAMDFixdl25arp3ZcHB1H3bt3l8q0Pj5c2W9yea91/oluV+txceV8IEd0XJr6/mis4/yBBx6QXr/00kv49ddfUVZWhq1bt2Lo0KH1tt0TJ05Ir6urq7F48WK32uvcubP0+uuvv3b7q2QeeeQR6fXzzz+PnJwcVFZWYv/+/Xjsscfs6nfo0MFm+5b9aSHa36SkJHzzzTcoKChAy5YtbY6x/Px81fVEaT1+ov2Njo6WXqelpTXYdjVRH0/d5uXlUVxcnN3Tgo5mqI5s27aNvLy87J6eMxgMtGPHDsU46iooKKCwsDCKiIig1atXU2lpKZ09e5bS0tKoV69eUr28vDwyGo0UHBxMK1asoPLycjp27Jjsk6D9+/cnALRgwQK6evWqwzq1tbUEuPb2kbWsrCwCzG+3FBUVUVFREen1egLMH9RU219RouMyduxYAkBTpkyh8vJy2rx5s83TYBbO9pNSXrgbnyt5NWnSJAJA77zzjuwdEbl6asel7nFU9+l1tf1QGlfR+KzJ5b3W+Se6XVfPG86oPR8ojbPouDT1/eFKfHIs6zk6FqzLjhw5YvP5rLo/Sm06267cayKixx9/3Ka9li1bKsYsF+PChQttytx96vbXX3+ljh07Co0LEdk91Vwf/R0wYIDqeqJEx090f4j295tvvrEp9/Pzcyv/1I6z9etGfev2iy++oI4dO5K3tzd16dLF6fvvIgn9/fffU1JSEvn5+ZGfnx8lJyfTpk2bhOJwpLCwkCZOnEgRERHk7e1N7du3pzFjxth97UJubi6NHTuWQkNDydfXl+Lj4yk9Pd3pNk+cOEEpKSk2J6C6LBO0KVOmyMavpLq6mnx9fW2eVEpKSiJfX1+qrq52qb+iRMbl4sWL9Mwzz5DRaCR/f3/q06cP7d27VzZxrbl6ohONj0h9Xl2+fJleeOEFatu2rfS5JrX11I7LokWL6I477iBvb2+Kjo62++oItf1QGlfR+Kwp5b3W+Se6XVfOG3LUnA9E8ldkXJr6/nAlPjlKF2lrP//8M40ePZratGlD3t7e1KFDBxo1apTdRF7kQuvoAlr3NRHRuXPnaOjQodS8eXOKjIykTZs2uTWxMJlM9OKLL9Jtt91G7du3p++//14oXjm//fYb/e1vf6OoqCjy8fGhkJAQSklJoY0bN9rVra6uppdffpkiIiJsvlJGbX/37dtHkyZNopiYGAoICKBmzZpRp06daNKkSfTbb7+pridKdPxE94dof4mIXn/9dQoKCqKQkBBavHixVKfuZ11F9qfavLJ+rXaip7v+XU8AbN/+U6Op/DH2phJHXVOmTEFaWhqOHDmCgICAxg6HMcYYY24oKipCmzZtAACtWrVCSUlJg227srJSqF52djYAD/oTaMXFxQDMf0GiqVm1ahXmzp3LkzzGGGPsJpWamoojR47g8uXLePfdd6VyV55FaEiGxg5ACxUVFXjnnXcAAKNHj27kaOwdO3assUNgjDHGmBsWLVqERYsW2ZX/6U9/aoRoxN30d/R0Oh1atmyJNWvW4PXXX8fMmTMbOyTGGGOMeZj09HQ88MADaNmyJfz8/NCjRw988803Nk8+N0Wa3NFrzM/ENbXP4zHGGGPM8zzyyCNNflLnyE1/R48xxhhjjDnGEz3GGGOMMQ/VJB/GcPQXJBrjLdqm9nUtrsbT1PrR1DXUeDWV/SJ6vDWV41KUu+Pb1PZPY8fBXKP1/vOUfGiq/WhqcWkRT5Oc6Fl3yN0/G1ZXU9uJrHFwHtwgerzV53HJ3MP5zBhzpklO9JoKTzlpeko/GFPDU/LeU/rB2M3AE483/oweY4wxxpiH0nSip9PpoNPpQESYOXMmwsLCEBERgTlz5kh18vLyMHr0aBiNRvj6+iI+Ph4bNmxweZvbt2/HyJEj0bZtW/j4+CAqKgrTp09HdXW1w9jq/t/RW1DWy5y9RbV582b06dMHAQEBCAgIQN++fbF161aH7WRlZUl1Q0NDkZqairKyMqleTU0NPv74Y/Ts2ROhoaHw8/NDVFQUxo4di127dtltW6k90X5YyhcvXow777wTPj4+iImJQXp6uk09tfFpxRJfdHQ07rzzTixduhR9+/ZFTEwM9u3bZ1NXNK/U5IHIOIvkAQCsXLkSMTEx8PHxQadOnbBw4UIXR8UsPz8fqampCA8Ph7+/PxISEpCWlmZXT/T40FJj5YuFaN6LHkci9dSc10TOkyL9sK7jaB1rInmgZlxE809kXBozX7QeF62Pc9H2RMZZ9Hyvtj0tx0Xr7YrmqXW7csdbY+bzkiVLEBkZCR8fH/Url5eXS3/41l24/gd3586dS/PmzaPrf0eX2rVrR0RE+fn5FBISQh06dKD9+/dTYWEh9e7dmwwGA+Xk5Mi26Uy/fv1o48aNVFlZSefPn6fJkycTABo/frxL7YnU3b59OxkMBoqNjaVTp07RqVOnqGvXruTt7W3zR8It6ycnJ9ORI0eotLSUJkyYQABo4sSJUr1Ro0YRAJo6dSoVFBRQdXU15ebm0pdffkmJiYmq2xPth6W8W7dudPLkScrNzaXY2Fjy8vKi7Oxs1fFpzRLfO++8I71+++23CQDdf//9Uj2t80p0nEXzYPfu3aTX6yk2NpZyc3PpxIkT1LVrV5f/iPnp06cpJCSEgoODafny5VRWVkZHjx51mPP1dXzI1WusfBGNUXT/itZTm39K50nRfqipI5IHov0VzT/RcWnMfNFyXLQ+zkXbEx1n0fO92va0Ghett6vmPGnN2f5qrHx2tN8qKiqEfixzu3qZ6M2ePdumfMOGDURElJqaSgBo2bJl0rLMzEwCQCNGjJBtU1RZWRkBoMDAQLfbc1Z3yJAhBIAyMjKksvT0dAJAQ4cOtVs/KytLKjt79iwBsDmp+/n5EQBatWoVVVZWKsaj1J5oPyzl1v3IyMggAPT444+rjk9rlvh+/fVXu9dBQUFSPa3zSnScRfNg+PDhTuu5cgEYN24cAaDPPvtM9bpaHR9y9RorX+pSynul/StaT23+KZ0nRfuhto41R3kg2l/R/BMdl6aSL0TujYvWx7loe6LjLHq+V9ueVuOi9XZdPU8621+Nlc+O9luTmOjt2bPH4fI2bdoQACoqKpLKLAdW+/btZdt0pLa2lubPn08JCQlkNBqlugBIp9Opbk+0bqtWrQgAnT9/XiorKioiABQSEmK3fkVFhVRmMpkIAOn1eqksJSVFquvl5UWdO3emJ554gtasWeMwHqX2RPthKbfuR3FxMQGgjh07qo5Pa5Zt1tbW2r227q/WeSU6zqJ5EBER4bSeKxcAS3/PnDkjW68+jw+5eo2VL6Ixiu5f0Xpq80/pPCnaD9E6onmgtr9K+Sc6Lo2VL1qPi9bHuWh7ouMser5X255W46L1dkXztC5n+6ux8tnRfmsSE72SkhKHyw0Gg9R5Ly8v0uv1pNPpZCcqcgfJX/7yFwJAI0eOpLy8PDKZTFRTUyN0EVfTn7q8vLwIANXU1Ehllu0aDAbF9euWX7hwgV555RWKiYkhvV5vc8L58MMPVbcnutxS7qgfvr6+quPTmnXczl4TaZ9XouMsmge+vr5O67lyAbD0t6qqSrZefR4fcvUaK19EYxQtF62nNv+UzpOi8YrWEc0Dtf1Vyj/RcWmsfNF6XLQ+zkXbEx1n0fO92va0Ghettyuap0rtqI1P63x2tN+axETPmTZt2lCzZs3o2rVrmrQZHBxMAOjcuXNSWX5+viYXMrm6cndyjEaj4vpyMVy5coW2bNlCgwcPJgDUtm1bt9oTWc/Rb3jO7oTJxac167idvSbSPq9Ex1k0Dzp06OC0nisXANHfVOvz+BCt15D5UldDTfTU5p/a/e7uRE80D9T0VyT/XDkuGzJftB4XrY9z0fZEx1n0fK+2PaXy+uqHUnl93NFrjHx2tN/UTvQa9OtVBg0ahJqaGmRmZgqvEx4eDgC4ePGi3TLzGAB+fn5S2dq1a2Xba968OQCgqqpKOIa6EhMTAQC7d++WyixP0/Ts2dPldgHA19cXffv2xZIlSwAAFy5ccKs9Edb92Lt3LwAgLi7OrfjknlzSmit51ZB50L17dwDAnj177Oq5YuDAgQCAjIwM2XquHB9yx5sr9ZpivmjNlfzTmlw+u5IHckTzz5Vxach80XpctD7ORdtTO85K53ut87m++qFENE9F1Wc+i7Deb6o15B29goICCgsLo4iICFq9ejWVlpbS2bNnKS0tjXr16uVwnUmTJhFgfvKy7kx67NixBICmTJlC5eXltHnzZoqMjJSNo3///gSAFixYQFevXnWpP9u2bSMvLy+7py0NBgPt2LFDcf265ffddx/961//oqNHj9KVK1eooKBA6vfTTz+tuj3R5ZZyy9M8eXl5FBcXR3q93ubzQ6LxWVg+R2f99qUrrON29prItbySywPRcRbNg+zsbNLr9RQXF0d5eXl04sQJuvfee13+TT8vL4+MRiMFBwfTihUrqLy8nI4dO2b35LUrx4fc8SZar7HypS61x0vdctF6avNP7X4XqS+Xz6J5INpf0fwTHZfGyhetx0Xr41y0PdFxFj3fq21Pq3HReruiearUjtr41OazEkf7rUm/dUtEVFhYSBMnTqSIiAjy9vam9u3b05gxY2y+jsLa5cuX6YUXXqC2bdtK74dbXLx4kZ555hkyGo3k7+9Pffr0ob1798rGceLECUpJSaEWLVo4rGcpc/Zj8f3331NSUhL5+fmRn58fJScn06ZNm4TGw9GB8Ic/d6wekwAAIABJREFU/IHuvvtu8vX1JaPRSImJiTR37lyb9+XVXLhE+mF5/cUXX1DHjh3J29ubunTpQt9++61NW6LxWWRlZUknUHeITvSI1OeVXB6oGWeRPCAiWrlyJUVHR5O3tzfdcccdtGjRIpcvAEREubm5NHbsWAoNDSVfX1+Kj4+n9PR0mzquHB9yx5tovcbKFyJ1ee9sXWf/lytXk38i+130PGQhl8+ieaCmvyL5JzoujZUv9TEuWh/nou2JjLPo+V5te1qOi9bbFc1T0eOtPvJZiSWGRYsW0R133EHe3t6qJ3q669/hBADo3bs32K2jvv4+5pQpU5CWloYjR44gICBA07aZ5+F8YWpwvriG/x6y56isrBSql52dDYD/BBqrB6tWrcLcuXP5JMyEcL4wNThfGFPH0NgBMM9z7Nixxg6B3UQ4X5ganC+MqcN39BhjjDHGPBTf0buF8Wc1GGPs1sDn+1sX39FjjDHGGPNQPNFjjDHGGPNQt+RET+23qmv9rf03818BYIwxxtjN45ac6DHGGGOM3QpuyYcx+EOpjDHGGLsV8B09xhhjjDEPpclEz/KZs8WLF+POO++Ej48PYmJikJ6eLlufiDBz5kyEhYUhIiICc+bMkeps3rwZffr0QUBAAAICAtC3b19s3brVpp2YmBjodDqsX79eKlu7di10Oh3uuecep9uV+4zcypUrERMTAx8fH3Tq1AkLFy50WC8vLw+jR4+G0WiEr68v4uPjsWHDBpfbY4wxxhjTmqZ39ObMmYP169fj559/hre3N0aMGIF9+/Y5rf/pp5+idevWOH78OFavXo0PPvgAALBjxw4MHDgQly5dwqFDh3Do0CGUlpYiJSUFu3btktZ/4oknAABfffWVVGZ5bVlmjYhk37bds2cPHnvsMXh7e+Pnn3/G+vXr8eGHH9rVO3PmDBISErBz505s3LgReXl58PPzw+DBg3HgwAHV7THGGGOM1Yvy8nLKzMykzMxMchUAAkAZGRlSWUZGBgGgxx9/3Gn92bNn25Rv2LCBiIiGDBli1156ejoBoKFDh0plx48fJwAUGBhIVVVVVFVVRYGBgQSAjh8/rhhvXcOHD3e6Xev6qampBICWLVsmlWVmZhIAGjFihOr2GGOMMcZEVFRUCP1Y5naaPozRo0cP6XV8fDwAYO/evU7rDxgwwOb/KSkpAICdO3fatZeQkGCzDAAiIyPRrVs37N+/H+vWrYPJZEJZWRni4uIQGRmpOv7s7Gyn27W2bt06AED//v2lsnvvvdemDTXtMcYYY4zVB00neoGBgdLrli1bAgDOnTvntH7Hjh0dlpeWltq1FxQUBAC4ePGiTd0nn3wS+/fvx1dffQWTySSVuaK4uNjpdq2VlJQAAMLDwwHYviVcUFCguj3GGGOMsfqg6Wf0ysrKpNeWyVpoaKjT+q1atXJYbpkkWrdnmeBZlllYPou3evVqrFmzBjqdDqNGjXIheqBNmzZOt2vNaDSiWbNmqK6uxrVr11BbWwuTyQQiQm1trer2GGOMMcbqg6YTvd27d0uvLW/ZxsXFqW4nMTHRrj3LQxg9e/a0qdu+fXskJiaioqIClZWVSExMRPv27VVvEwC6d+8OwPwQRd3tWhs0aBBqamqQmZmpSXvW+K9mMMYYY0wrmk70pk+fjlOnTuH06dOYPn069Ho9pk6dqrqdV155BV5eXpg2bRpyc3ORm5uL6dOnw2Aw4NVXX7Wrb/2EraOnbUW9+uqr0Ov1mD59Ok6fPo2TJ0/itddes6v35ptvIiwsDKmpqVizZg3Kysrwyy+/4Ouvv0ZSUpLq9hhjjDHG6oOmE70XXngBKSkpiIqKQlVVFZYvXy7d1VIjOTkZ69atQ0BAAGJiYhATE4MWLVpg/fr1dnf0AGDUqFHQ6/XQ6/VO37Z19P15dcvi4uKwYsUKVFdXIyoqCg8++CBeeuklu7Zuv/12ZGdn4+GHH8Yf//hHhISEICkpCenp6dJXxKhpjzHGGGOsPujKy8spJycHANC7d2/XGrk+USL+02KMMcYYY/WmsrJSqJ7lmz/4T6AxxhhjjHkonugxxhhjjHkonugxxhhjjHkoTb4wmT+bxxhjjDHW9PAdPcYYY4wxD8UTPcYYY4wxD8UTPcYYY4wxD8UTPcYYY4wxD8UTPcYYY4wxD8UTPcYYY4wxD8UTPcYYY4wxD8UTPcYYY4wxD8UTPcYYY4wxD8UTPcYYY4wxD8UTPcYYY4wxD8UTPcYYY4wxD8UTPcYYY4wxD8UTPcYYY4wxD8UTPcYYY4wxD2Vo7ABuRjqdDgBARA2yntr1LfWsiWyzoeJrLE09PlGu7l9mxuPXuLQ6Dj3leG4sPH63Dk0mevWZMGomN5ywZtbj4Oii1pRonTu3wsnrZtq/ohpyv3ni+DH3eMp5w1P6wbTFd/QaUFM/+Jp6fIwxZsHnK/fw+N06+DN6jDHGGGMeqsEnenl5eRg9ejSMRiN8fX0RHx+PDRs22NXT6XQ2b6tY/u/KWy01NTX4+OOP0bNnT4SGhsLPzw9RUVEYO3Ysdu3a5XJfsrKy0KdPHwQEBCA0NBSpqakoKytz2he5+DMyMhATEwMfHx9ERUUhLS3NaX3R7YpqjPi03L9q2xOJTzRPXYmRiDBz5kyEhYUhIiICc+bMqbftirQXExMDnU6H9evXS2Vr166FTqfDPffcY1N3+/btGDlyJNq2bSvlwvTp01FdXW3Xz8bIg/z8fKSmpiI8PBz+/v5ISEhAWlqaS20BYv0VPb+oOQ+J7Lf6OK9pvX9XrlwpnTc6deqEhQsXuhSXNaXzVX3kn5rjUuQ4FxlnQDyf1RxHIuf7zZs3S2MXEBCAvn37YuvWrQ7bURpnV/LUnXMAc6C8vJwyMzMpMzOTXAWAACjWy8/Pp5CQEOrQoQPt37+fCgsLqXfv3mQwGCgnJ8ettuXqjBo1igDQ1KlTqaCggKqrqyk3N5e+/PJLSkxMVGzbWUzJycl05MgRKi0tpQkTJhAAmjhxouJ6deXk5JDBYKCYmBg6duwY5eXlUffu3e3qu7Jd0fG7GeJzpw9q4nMlT9XENnfuXJo3bx6Vl5dTTk4OtWvXzuXtyvVXtL0333yTAFBqaqpU9vTTTxMAmjVrlk2b/fr1o40bN1JlZSWdP3+eJk+eTABo/PjxdjE1dB6cPn2aQkJCKDg4mJYvX05lZWV09OhRm9jUblekv6LnF9F6ovtN6/OaaH9F9+/u3btJr9dTbGws5ebm0okTJ6hr166aHfPO2tE6/9Qel0rHOZHYONdHPovU3b59OxkMBoqNjaVTp07RqVOnqGvXruTt7U0//vij3fpK4+xKnmp9XfA0FRUVQj+WuV2DTvRSU1MJAC1btkwqy8zMJAA0YsQIt9qW4+fnRwBo1apVVFlZ6VZb1jFlZWVJZWfPniUANgezs/XqshwIq1evlsoyMjKcTqTUbFeLA7+pxOdOH9TE50qeqolt9uzZNuUbNmxwebty/RVt7/jx4wSAAgMDqaqqiqqqqigwMJAA0PHjx2X7VFZWJq1bN6aGzoNx48YRAPrss8+E11G7XUf9FT2/iNYT3W9an9cccWf/Dh8+nABQRkaGVJaent5gEz2t8k/tcal0nDviaJzrO5+d1R0yZIjT/TZ06FC79ZXG2ZU85YmevCY90WvTpg0BoKKiIqnMkuDt27d3q205KSkpUjteXl7UuXNneuKJJ2jNmjUutWdpq6KiQiozmUwEgPR6veJ6dXXo0IEAUHFxsVRWXFzsdCKlZrtaHPhNJT53+qAmPlfyVE1se/bscbhc6+NDTXvdunUjALRy5UpasWIFAaC4uDibOrW1tTR//nxKSEggo9EobRsA6XQ6u5gaOg8s/T1z5ozwOnLbFe2v6PlFtJ7oftP6vKb1/o2IiCAAdP78eamsqKiowSZ6WuWf2uNS6TgXHWet81m0bqtWrZzut5CQELv1lcZZ6zxlTXyiZzAYpJ3t5eVFer2edDpdvV8ALly4QK+88grFxMSQXq+3ObA+/PBD1e0pnWDUrufz/+zdeXxTVf4//le60LSlrOkGUnZUQBbZCqUwLvCYyjIKKoqDMuOMog/no+IMjoAiKCKOX3HE0RkG9586gCgguLBIqSCylNaNgkVKpS20QEsLlLa0ff/+uCRNmu0kTZv09vV8PPpIcu7Jueece87NO3dJw8IEgFRVVVnSqqqqnAZSnqzXFxM/UOqnwpt11U/3Zpx6UrfTp087XO7r+eFJeUuXLhUAcscdd1iO4L7wwgs2eR577DEBILfeeqvk5ORIbW1tQI0Dc3srKiqU3+NqvartVd2/qOZT3W6+3q/5evsajUal/Ya3PB1n3o4/T+elu3mu2s++Hs+qeYODg51ut5CQELfv93Z+kLqADvTi4uKkVatWUl1d7fOyVV28eFFSU1NlwoQJAkA6d+7scRm+DvTMR8ysvzG6OmLmyXp9MfEDpX4qfBHoeTNOG1o3b9frqkxPyjt27JgAkMjISImIiBCDwSDHjh2zydOhQwcBICdOnLCk5ebmBsw48PURENX2WlPdv7jK58048MV+zdfb17zf8NcRPdV0d8s83R7u2qfaz4F4RM9kMrl9vy/mB7nmaaDXpHfdpqSkoKqqCmlpacrviYqKAgBUVFT4pA5GoxFjx47Fe++9BwAoLi72SbkNMXz4cADA7t27LWkNuRvYWqdOnQAAJSUlXpfRmPXz9fb1RXnejFNf8Ga9rravJ+V17doViYmJuHDhAsrLy5GYmIiuXbva5BERAEB4eLgl7fPPP1euqyu+2G7jx48HoN0hrspV/3nTXtX9i6t83owDX+zXfL19hw4dCgDYt2+fJc1X+w1fczX+fL0/UO1nb8azL+ZRYmIiAGDv3r2WNPN2GzlypNflAurjlHfd+lhTHtE7fvy4xMfHS0JCgnz66ady9uxZycvLk1WrVsmoUaMcvueGG24QALJy5Uq5dOmSV/UbMmSI/Oc//5GsrCy5ePGiHD9+XB566CEBIHfffbfH5Tlrr7t+cLY8IyNDgoODpW/fvnLo0CE5duyYJCYm+uRIibmdzz33nNtvpP6ony+2r2p5qvXzZpyqcDc+vFmvq+3raXnLli2z1PHll1+2Wz5jxgwBIHPmzJGysjLZvn279O7dO2DGQU5OjphMJunQoYN8/PHHUlZWJocPH3Z5J7yr/lNtr+r+RTWf6nbz9X7N19s3PT1dgoKC5Nprr5WcnBzJzs6WgQMHBuQRPVfjz9N55K59qv3szXj2ZB45q+fXX38twcHBdnfdhoSEyDfffOP2/d7OD5W6kcavp26d/VkrKCiQWbNmSUJCgoSGhkrXrl3lrrvusrlt21p2draMGzdO2rRp4/XGT09PlwcffFCuvvpqMRqNYjKZJDExUZYvX25zHYKn7VVJV+2b9evXS9++fSU0NFR69+4ta9euFcD2GhBvdmDnz5+X//u//5POnTtbrisJpPr5YvuqludJ/TwdpypU2ufpet1tX0/Ky8/Pl6CgIAkKCpKCggK75SUlJfKHP/xBTCaTREREyJgxY2T//v0+CfR8NQ6OHj0qM2bMkNjYWDEajTJs2DDZsGGD0/yu+k+1var7F0/2Qyrbzdf7tcbYvuvWrZN+/fpJaGio9OjRQ955550GbV+V/VVjjD9P5pG79qn2s4jn49ldO1T391u2bJGkpCQJDw+X8PBwGT16tGzbtk2pnd7OD0/6sKXzNNAzXP6NHwBAcnIyKDCcOnUKMTExiI6ORlFRkb+rYyfQ60dERKRH5eXlSvnS09MB8F+gBSzzBmroNRGNJdDrR0RERAz0AsaECROQmpqKc+fO4fvvv8ecOXMQGhqKuXPn+rtqAAK/fkRERGSPgV6AeOyxx7BkyRIkJCQgKSkJJpMJ27Ztw4gRI/xdNQCBXz8iIiKyx2v0iIiIiJoJXqNHRERERAAY6BERERHpFgM9IiIiIp1ioEdERESkUwz0iIiIiHSKgR4RERGRTjHQIyIiItIpBnpEREREOsVAj4iIiEinGOgRERER6RQDPSIiIiKdYqBHREREpFMM9IiIiIh0ioEeERERkU4x0CMiIiLSKQZ6RERERDrFQI+IiIhIpxjoEREREekUAz0iIiIinWKgR0RERKRTDPSIiIiIdIqBHhEREZFOMdAjIiIi0ikGekREREQ6FeLvClDjMhgMluci4seaEBERUVNjoNeIGGQRERGRPzHQq8c6OKtPr8EaA1IiIiJ9YqCncwzciIiIWi4GevWYAyMe5SIiIqLmjnfdesFgMFj+vvrqK/Tt2xdRUVG46aabUFhY6PA927dvd5nvu+++Q0pKCqKiohAREYHExERs2LDB5bp37NiBAQMGIDg42O6Us3U+85+zspy9z9rGjRsxfvx4xMTEICwsDL1798b8+fNRVVXlVb+UlpZi7ty56Nu3L8LDwxEbG4uUlBR89tlnXvWLu/oTERG1RIaysjLJzMwEACQnJ/u5OoHD1RE962UxMTEoKiqyvL777rvxzjvv2OWLi4vDyZMnHeY7dOgQhg0bhvPnz9vVY/369Zg8ebLDdZtMJpw+fdphPR0FOq7a4Yi78gBg7ty5WLx4sV0eV/1y6tQpJCUlITs72+V6PekXR/XkkVgiItKb8vJypXzp6ekAeESvwZ599lls27bN8nrr1q0O8z3zzDNO8y1atMgSzGzfvh27du2yLDMHUY6MHj0av/zyC0TELqhxlFafq/fVT09JScHnn3+OwsJCpKamWtJXrVrlsGxX/bJgwQJLkDdkyBCkp6fj4sWL+P77722CN2/7hYiIiDQ8oueE6hG9c+fOISwsDK1atQIABAUFoaamxmE+o9GI0NBQu3xxcXGWU5vBwcGora21rNNoNOLixYsO111YWIiYmBiv2+FJHgD47LPP8Nxzz9kEXK1atUJlZaXD9jrrlyuuuAL5+fkAgAMHDmDw4MEO1+dJvxAREbUEnh7R480YDdS6dWub17W1tR7nO3PmjOW5ORgyq6iocLpud0Ger5w6dQq///3vsXnzZoSEhKBLly44fvw4ANhco2fNVXutr9e76qqrnK7X234hIiIiDU/dBoD27dtbnp86dcrm9GkgXGc2adIkbN68GYD2DeHQoUMNKi86Otry3FVZgd4vREREgY6BXgC47rrrLM9nz56NkydPorS0FDt27HB4w4GvWR9927dvn91y65smKisr8e677zZofZMmTbI8v//++5GZmYny8nJkZGRg6tSplmXe9AvvuiUiIqrDa/TqUfnPGI6uaWtIWlZWFhITE1FWVuZyvc7e70kbHL13woQJdj9rYp3n9ttvx5o1ayzp7dq1w9mzZ+3yqba3sLAQI0eORE5Ojsu6edIvZrzrloiI9Ix33TZDV199Nfbu3Yvp06cjLi4OoaGh6NatG26//XZ88803jb7+FStW4M4770Tnzp0REmJ/2eYrr7yCyZMnIyoqCr1798batWsbtL7Y2Fjs378ff/vb39CnTx+EhYUhOjoa48aNs7k719/9QkRE1NzxiB4RERFRM8EjekREREQEgIEeERERkW4x0CMiIiLSKQZ6RERERDrFQI+IiIhIpxjoEREREekUAz0iIiIinWKgR0RERKRTDPSIiIiIdIqBHhEREZFOMdAjIiIi0ikGekREREQ6xUCPiIiISKcY6BERERHpFAM9IiIiIp1ioEdERESkUwz0iIiIiHSKgR4RERGRTjHQIyIiItIpBnpEREREOsVAj4iIiEinGOgRERER6RQDPSIiIiKdYqBHREREpFMM9IiIiIh0ioEeERERkU4x0CMiIiLSKQZ6RERERDrFQI+IiIhIp0L8XQFqHIb52qM827B8quU0lUCrj6952z7z+6zptY98wWAwAABExM81aRjO8+apuc9zZ/VvaP30vt39hYGenwTKhG1KKpN4XRbwz2+AjBPa68HxwBNjgfG9/Fs/87I/DwVW3Hz5+Tpg5X7n72lK1ut3NLYCiV6CLBWc545xnntHdZ7XX9YhHOjRAbh3CHDfMCDI4N/6UdNioOcnzWVCNOWObcE2YNF24OGRwP93G9AmDFiZDkx4F7i0qOnq4crXuVbPj/mtGtRMcJ7b4zxvOubteroceGY78MAG4OfTwEs3+aZcah4Y6FFA+OZX4JlUYNJVwMsT6tIfHQW0N/qtWnYKyoBTF7TnJ875ty5EzQ3nuX+YIoBFNwCv7AbeOtDwQI+aF96MEcBySoDpqwHTc4DxaWDY68DmI/b51mUB/V8BwhYAPV8C3j7guDzVfIB29MH6z5Hcs8DMtUCnpUDEQmDEv4FVPzgvy1HZZq/tAUSA+4fZv3/mtfZpO3OBMSuByIVA7BKtHqUVtnl25QK3fgh0Xqq1uc8yYP5WoLLa8/qZjUzQvu2nHQNGJdgvB4DtR+vqFrkQGLsS2JFjn091e6iOA1/LycnB9OnTYTKZYDQaMWzYMGzevNkmzz333AODwYD+/fujvLwc5eXl6NevHwwGA2bOnGmT12AwWE7bWr+2TlNdr/l9O3fuxJgxYxAZGYnY2FjMnDkTpaWlNnnXrVuH/v37IywsDD179sTbb79t19aqqiq88sorGDlyJGJjYxEeHo4+ffpgxowZ2LNnjxe9p47zXMN53rjzvLJGewwNrktz1n536a7Gi6rG6BdzvUSAhV8B8c8DCf8AXv6mYXVt7nhEL0D9elbboUa2Arb+AYhtDUxbpZ3e2P8gMDBOy7cvH5j6ATAgDjj0CFBTC0z90L481Xxm5kPzrnb+w17XyvnvLcCNPbVvwS/uBKZd47osR4f9d/2qPV7byXmdrD2xWbuGplMUMOdLYMU+IDwUeH1yXZ6ntgFzxwLv3QpcuAQ8ux1YnAqcPAesvMWz+pmN6aadyhEBkrsBX2TbLv/mV2D820D/WOCHv2hpt3wAjHsb+PrPwIgrtDTV7aE6Dnzt119/xYgRIxAZGYmtW7ciNjYW06ZNw4QJE7B//34MHDgQAPDaa69h7969+Omnn/CXv/wFIoKDBw/iqquuwr/+9S+bMs3X5Lm6Rk91vWZPPPEEVqxYgU6dOmHOnDlYsWIFwsPD8frrrwMA9u3bh6lTp2LAgAE4dOgQampqMHXqVLv1zpgxA6tXr8bcuXOxZs0axMTEID8/H3v27MEjjzyC3bt3N7xTHeA8d43z3DfzvPC81pcA8NfR3pfjbryoaux++dceIKY18POjwNESYNJ7wCOjGlbn5oxH9ALUgq+0UwfPjQMGxQPxUcDiG4HqWmDRV3X5luwAagVYPA7o3h7o1RF49kb78lTzKddvm1a/xeOAKX2162yuirbdsXrCfHrEFKGW//nxwNXRQFsj8NR1Wtqmw7Z5tv0RuKGn9sFgigAWXW7vRz95V0eg7gPg61wguav98iU7tG20eJx28XOPDlo/X6oBnku1zaeyPVTHga8tWLAAp06dwnPPPYdBgwYhPj4eixcvRnV1NRYtqruQKjIyEqtXr4bRaMSbb76Jt956C0ajEatXr0ZkZGSjrdfs+eefx9VXX422bdviqaeeAgBs2rTJsnzJkiWora3F4sWL0b17d/Tq1QvPPmv/Cf/pp58CAEaMGIGOHTuiVatW6N69O+64445GC/IAznN3OM8bNs/NR7jingc+Pgi8NQWYk+x9eb7S2P1yvgp4YDgQFaYFg294OV71gkf0AtQXP2uPN/SsSxsYrz2mF9SlmZ8Pv6IubUQX+/JU86n68vI33AlXel9GQwy2OiLQKUp7zC+rS6sV4I104I39wC/F2sXIZmWV3q93+BXA4dNa+dZ9abb7eF0+M3M/m5cB6ttDdRz42hdffKGt94Yb6tZ7+Whaenq6Td5rrrkGL7/8MmbNmgUA+Oc//4lrrql3uKcR1gsAgwcPtjzv1EkbFPn5+ZY083uGDx9uSRsxYoRdOaNHj8aWLVvwu9/9DsHBwejVqxcGDRqEGTNmYMKECXb5fYXz3DXO84bNc/MRuLwy4IH1wH3rtaNiKX28L9MXGrtfbuxp+3pcE9zNHcgY6AWIepcpWXZYnZZqjyKA+UTXcatLkIrOa49tw+rSHF3UrJpPlbl+MZ4ftHEorrV2muh0ufatzZ2I0Lrn5r6rtToTOOdL4P/tBG7tB/xvGtC1nfYtsNUCrS+91SoYGNoZqBEgzMHsOXv5+iFH/VxysS5NdXuojgNfO336tLbey8GTiFhOtR4/ftwu//Tp0zFnzhwAwJ133tlk642IqDs0ZD4lXFtba0krKioCALRt29aS1r59e7tyVq1ahRdeeAEbN27EwYMHcfjwYRw+fBirVq3CsmXL8Mgjj3jdJmuc55zn/pjnV7QBXkwBNr4MPLnV/4FeY/dLd/sp3qIx0POz8kvaY1Qr23RTBFB8EShfAAS7OMEeFwUcKwFKK+tOh5RUeJ9PlSkCOHkeKLoAdGnrPr87oxK0D4ADBb45evDW5YM/yydpHy6A7+6e236v82XtjMCZcsf93M5qR6a6PVTHga+ZTCYUFxejvLwcwcHBbvM/+uijKCvTDrXMnj0b//3vf5tkve7ExcXh2LFjKC0thclkAgCUlJTY5Wvfvj2WLFmCJUuWoKKiAnv27ME//vEPbNq0CS+++GKDAz3Ocw3nuf/mebd22uPBU3VpQQYtcBapC6QvVDXO+q01dr90VLw0oKXgNXpN7PW9tq+PnNEer462TU/pA1TVaHd9uTL08qmNfXl1aXvsD3wo51M1vrf2WP96GVeiLn97q6i2Xzbr8pk18w+TWnsnw7O6AXXf+sKtvsp8nu0wq4Wr+qlKvHz6Ya+Dfh5pdfee6vZQHQfWzKe4rI8seColJQVVVVVIS0tzm3fTpk144403YDQaYTQasXLlSnz22WdO80dFaRWsqLDfs3uyXhVDhw4FoN2UYebuLlqj0YixY8fivffeAwAUFxd7vF7Oc85zILCEIBx/AAAgAElEQVTm+cnLR9Gsj5yZj6oWWAXH5h+xbihX9WvMflHl6I5/vWKg18Qe+lQ7dF50QZt4T27V0u+p99MCi27UJuHMj4GNh7WfFMgvA1b/ACStqMv3xFjtW9n8rdo3pCNn6sq0pppP1cLrtW9b87YAnxwEzlVqP8T5wAbn7zFfj/H+d9rpFWtjugGPj9FuuZ/9mbbjOVep/e7Tn9d5Xr+Jl48WPLdDKyc1RzvF44qr+qn6+xjtm+e8LcDRYu1v/lYgJAh4YkxdPtXtoToOrE3ppz3+e692N5s3Fi1ahPj4eMycORMbN25EaWkp8vPzsXr1aiQlJVnyFRcX489//jMAYPHixZYbHf70pz85DZDM18u9//77qK62/bRVXa+qJ554AkFBQZg/fz6OHTuGI0eO4Mknn7TLN3ToUKxYsQKHDh1CRUUF8vLyLDd33HbbbR6vl/Oc8xwInHl+0uqu2/vrLle1nMJdtF1b56FTwNwtan3gjqv6NWa/kD1DWVmZZGZmAgCSkwPgdhyd2/qL9q9/DhQAp8q1w+n3DQMeS7K/fufEOW0Cfvaz9rxTFDC6K/CXkXW37wPA+ixth/PzGe30yoLrgHvWasusf0JANZ+7W+fNeXNKtLvyNh/RJuA1scCT12k/hurIkTPAg59q39zMF0rX/4mD1T8Ar+4Bvjuh9Uf9f43k7n8smtPPVmgfJJ8e0k6bDe2s/Ujo0Nccv99d/VTXC2jb+OmvtG0MAEM6AQtvAK7vYfte1e2hOg7MLlRpO+u1P2kfpCLe/ZL9iRMnsGjRInz22Wc4ceIEOnXqhNGjR+Mvf/mL5YaGadOmWYIw81G4MWPGYNeuXZg2bRr+97//2ZV75MgRPPjgg9izZ4/ldK/1T62orNfZT7Q4Sl+/fj3mzZuHn3/+GV26dMGCBQtwzz332OQ7cOAA3njjDWzfvh05OTlo3bo1evXqhbvuugv3338/QkND4QnOc85zM3/M8/rb1hii3S39xyHAQyPqxmDxReDhTdpND+b+WzK+LojyZryo1K+x+sWT/5XbnP8VY3l5uftMqLsZjYEeERERUTPhaaDHU7dEREREOsVAj4iIiEinGOgRERER6RQDPSIiIiKdYqBHREREpFMM9IiIiIh0ioEeERERkU4x0CMiIiLSKQZ6RERERDrFQI+IiIhIpxjoEREREekUAz0iIiIinWKgR0RERKRTDPSIiIiIdIqBHhEREZFOMdAjIiIi0ikGekREREQ6xUCPiIiISKcY6BERERHpFAM9IiIiIp1ioEdERESkUwz0iIiIiHSKgR4RERGRTjHQIyIiItIpBnpEREREOsVAj4iIiEinGOgRERER6RQDPSIiIiKdYqBHREREpFMM9IiIiIh0ioEeERERkU4x0CMiIiLSKQZ6RERERDrFQI+IiIhIpxjoEREREekUAz0iIiIinWKgR0RERKRTDPSIiIiIdIqBHhEREZFOMdAjIiIi0ikGekREREQ6FeLvCjR3BoPB8lxE/FgT0pNAH1eBXj9qGhwHRIGPR/TIKwaDwfLXnOmlHUSA78ZzYWEh7r77bnTu3BmhoaGNOkes6+zpejh/idxjoGfFeqdhNBrRp08fPPbYYyguLvZ31bzCnSA1RGpqKgwGA6677jp/V6VRcH44N2vWLLz33nsoKChAdXW1v6tDRA3AQM+JyspKZGdn46WXXsLo0aNRXl7uMJ+IWP6IfCUQxtXTTz9t82gtEOpHjWf79u2W5z/++KPTbe2LccBxRNS4GOg5UVpaiilTpgAAsrKy8J///MfPNSJqOqmpqdixYwd+85vfYOzYsf6uDjWx0tJSy/N+/fr5sSZE1FAM9Jxo06YN5syZY3m9fv16m+Wq15VYL9+xYwcGDBiA4OBgu/zfffcdUlJSEBUVhYiICCQmJmLDhg125ZWWlmLu3Lno27cvwsPDERsbi5SUFHz22Wd263RWD0+JCObMmYN27dqhe/fuSEtLc5pXpR3Wdfnqq6/Qo0cPtGnTBn/961/tvtl7U17fvn0RFRWFm266CYWFhU3WDmfrBdS2W/0yXW0vlfpVVFTgxRdfxLBhwxAdHY2IiAhcddVV+OMf/4h9+/Y5bTvg/GieSv3M6fPmzUOHDh3wv//9D4MGDUJsbCw2btzotP9cjYPMzEz89re/RVRUFFq3bo3f/va3+P77752u29V8U50fDek/ZzZu3Ijx48cjJiYGYWFh6N27N+bPn4+qqiqn/eKL8axKtW98OU5V+bq97tpl5sk4UNm+ALB48WJ06NABV1xxBT7++GOn/dhY85yXLbQwZWVlkpaWJmlpadLSAbD8iYiUlJRYXsfGxjrNa/0eV2WaTCaH+bOysqR169YOy1y/fr0lX1FRkfTu3dthPuvynC13VU9XVqxYYfP+2NjYBrXDVVnvv/9+g8qLiYmxeX333Xc3STtcrVd1uznbdvWp1u/mm2/2ahxs375dAMhvfvMbu2Uq5ZjTg4ODbR4ByPDhwx2W5WocHDx40GF7o6Ki5PDhw07r52y+qc4Pb/vPFWdlzZ0712EeX4xnX9RPpQ/rUx2njsp0xNftddcuM0/Ggcr23bBhg82yiIgIh+U15jxv6Dgh/7pw4YLSnzm2Y6Bnpf7gr6mpsbxu1aqV0ntcLb/55pvll19+sctz5513WvJs375ddu3aZXlt/cH4wAMPWNKHDBki6enpcvHiRfn+++9l8uTJHtdN1ahRoyzlvPrqq/LPf/7TYdmq7bB+76uvviqvvvqq5fV1113XoPJWrFgh27Zts7zu1KlTk7TD1Xo93W71y65PtX7WHyBr166VyspKycvLk3Xr1sno0aOdbu+xY8cKAElNTXWax1X9zOnW9TI/79Chg8MyXI2DadOmOc135513Oq2Xs/mm0oaG9J8rKSkp8vnnn0thYaGkpqZayu/Zs6fDevliPHtDtRxfjFPVdfq6vY7e6yjNk3Ggsn1vuukmS/orr7wiy5Yta9B+yJtx6qtxQv7BQK8B6g/+6upqy+uwsDCl97haXlhY6DCP9TfT4OBgMRgMltdGo9GSr3Pnzpb0AwcOeNweb7Vp08ZSTlFRkRQWFjosW7Ud1u8tKiqSoqIiy+v4+PgGlXfu3DmpqqqyvA4KCmqSdrhar6fbrX7Z9anWb+LEiTb16du3r/z1r3+VrKwsp+t1dTRPtX7mdOv5Y34eEhLisAxX48D6qFb9fHFxcU7r5Wy+qbRBxLv+U7Fp0yZJSkqyWb/1F0lfj2dvqJbji3Gquk5ft9fRex2leToO3G3fK664wqYdJ0+ebNB+qLHGKQUuBnoNUH+yFRcXW17XP3Xr7D2eLhcRCQkJsclX/89RvvLyco/b4y3r9V66dEkuXbrktn6u2mGdVr886x2iN+W5SmvMdqiuV2W7OSvH0/qVlpbKvHnz5Morr7RZHhYWJp988onD9aoczXNXP+t0Z8/rl+FqHFif+q2fzzpwdFcvT9og4l3/uVJUVCTjx4+31LtLly5NMp69oVqOL8ap6jp93V7VflYdB6rbt1WrVj7dD/l6nFLgY6DXAPUn0bfffmt57ewIh7sdjcqOKDo62pLn1KlTTvPFx8db8jXlEb24uDib+jn7Jq3aDuv3njp1yumRHG/Kc5XWmO1wlebpdnNWjqf1s1ZUVCSLFy+2vK9Pnz52eVSP5rmrn3W6s+f1y3A1DqyP6NXP5+ra2Ya0oT6V/nNnxIgRlvd/9913cuHCBeUx1JDx7A3Vcnw5TkNDQy35HX0h8nV7g4KCLO+9dOmSnDt3zm15rsaB6va1boerI3qNNc+p+fM00ONdt06UlZXhhRdesLyePHlyo63L+gdpZ8+ejZMnT6K0tBQ7duywWe+kSZMsz++//35kZmaivLwcGRkZmDp1ql25rVu3tjz39i5BALjyyistz1evXo1Vq1Y1qB3WVq9ejTVr1jhclzfl+asdrni63dxRrV9SUhLWrFmD48ePo127dhg5cqRlWW5url25rn43r7GpjoP6+a6//nqv1+lufnjaf+5kZ2dbnldWVuLdd9/1uAxrquPZXzydR926dbM8X716NaTende+bm9sbKzl+ddff43Vq1c7zKc6DlS3r/XP1axatarB+yFvxinvum1heESvDqy+VVn/XX311TbfMJ3lg4NvZY7S6jt48KDN9SfOyjp58qR0797dbT4z64t+VerhzNtvv23zfmd3u6m2wzqt/l2F77zzToPKc5XWmO1wlaa63VTHlTf1q/9344032mxjlaN5qvVTee7JOPjpp58kMjLSbl2tW7e2uw7Jk3Hubn540n8qbrvtNpsy2rVr1yTj2RuuyvH1ODV78sknXebzdXvvvvtul2NQpb3W40B1+65Zs8YmPTw83GG+xpjnjt5DzQ9P3TaA9eAPCwuTnj17yqOPPiqnT592ms+TSejKoUOHZPr06RIXFyehoaHSrVs3uf322+Wbb76xyXfmzBn529/+Jn369JGwsDCJjo6WcePGydatW+3KzMvLkzvvvFM6d+5sc72Hp2pra+WRRx6R1q1bS9euXWXLli1O26XSDuv3btu2Tbp06SJt27aVxx57TGpraxtUnqu0xmyHqzQRte3mybhSqd+BAwfkoYcekv79+0tkZKS0atVKevbsKQ899JCcOXPGpn6e3mnrqn4qz+uX524cpKeny7hx4yQyMlIiIyNl/PjxkpGR4bKO7ribH570n4oTJ07I5MmTJSoqSnr37m1zN627MdTQ8ewpV+X4epyaVVZWyuOPPy4JCQk212U2VntPnjwpKSkp0rp1a7nyyiudbg/VcaC6fUVEFixYIO3bt5fo6Gh59913LXmsb7ZR7T9vxikDvebN00DPUFZWJpmZmQCA5ORkEDU269MFUu/0DDW91NRUXHfddfjNb35j86+vGhvHARFQWFiIuLg4AEDHjh1x+vRpP9eIAp2zf8laX3p6OgD+ZwyiFs+f1+YRtUQzZ87EwYMHcf78eSxdutSSfu211/qxVqRXPKJHTY5HcgjgOKCWy9lNEBs2bLC5eYvIER7RIyIiCmAbNmzAddddh3bt2iE8PBzDhw/HmjVrGORRowjxdwWo5eHRGwI4DqjlmjRpEoM6ajI8okdERESkUwz0iIiIiHSKgR4RERGRTjHQIyIiItIpBnpEREREOsVAj4iIiEinGOgRERER6RQDPSIiIiKdYqBHREREpFMM9IiIiIh0ioEeERERkU4x0CMiIiLSKQZ6RERERDrFQI+IiIhIpxjoEREREekUAz0iIiIinWKgR0RERKRTDPSIiIiIdIqBHhEREZFOMdAjIiIi0ikGekREREQ6xUCPiIiISKcY6BERERHpFAM9IiIiIp1ioEdERESkUyH+rgCRK4b52qM827B8quVQ81Z/O5tfWwv0MTBnzhzs3r0bX3/9tdM8BoMBACAiTVUtaoaSkpIwevRoLF261N9VIT9ioNfEnO2gm+uOuzl+kDaUu6Bx42Hg+TTgp0LAGAKMSgBmJwFJXb0rL5A5q3ugtMl6/Y7GaqDJyMjAsmXL8Mknn/i7Ks1OoO9D/VG/xx9/HFOnTsUdd9yBwYMHN9l6KbDw1C01iDxb9xfImqqO/90PTHoPCAsG9j4AHH4USOwCjH2j8ddNzd/cuXNhMplw0003ucwnIgEb0FDgmDhxIjp27Ih58+b5uyrkRwz0iHxoyQ7tceUtQO+OQJsw4G/JwL8n+7deFPh+/PFHfPHFF5gyZQqCgrhrpoYLCgrClClT8Pnnn+PHH3/0d3XIT7g3CVBVVVV45ZVXMHLkSMTGxiI8PBx9+vTBjBkzsGfPHpu8OTk5mD59OkwmE4xGI4YNG4bNmzd7XZ6v5ZQA01cDpucA49PAsNeBzUfs863LAvq/AoQtAHq+BLx9wHF5qvkA7XSd9Z8juWeBmWuBTkuBiIXAiH8Dq35wXpajss1OntceK6tt3/unod6VV3+ZCLDwKyD+eSDhH8DL39TlUe3nXbnArR8CnZdqfdhnGTB/q22dzevr9wrQ6yXg/e+AsSu1fj9QYF+mCk/WuzMXGLMSiFwIxC7Rtk9phW15nowDFar9Z11PV9vDU6tXrwYAJCcnO81jMBhs/pwt37lzJ8aMGYPIyEjExsZi5syZKC0t9apeubm5mDlzJjp16oSIiAiMGDECq1atssu3fft2yzojIyMxduxY7Nixw6v6ebK/qt8XKv0jIli4cCHi4+ORkJCAl19+2WFZztbhSb+o1k+l/1TbYW306NEAgDVr1jgsi1qAsrIySUtLk7S0NKHGB0AAuE2//fbbBYDMnTtXjh8/LpWVlXL06FH58MMPJTEx0ZIvNzdXoqOjpVu3bpKRkSEFBQWSnJwsISEhkpmZ6XF5DWrbPO3PWm6JSPRzIt1eFMkoECkoE0n+r0jIkyKZJ+ry7c0TCZovMuhVkaPFItmnRQYsty9TNZ9K3UREjl2uX4dnRdb+JFJaIZJVJHLvx56XJSJy/RvasnbPiNy/TuTD77QyXXFXd+s8y3eLvLZHpKxC678uL2jLVfvZXMetR0TKq0ROXRB5eKNWtnWbzet7LrXu+eLLz3+z0n3dHaV7st7RK0QOFomcvShy3zotbdb6unzejANXyzzpP+uynG0Pb4wcOVIAyKFDh9zmdbcfGT16tBw8eFDOnj0r9913nwCQWbNmeVynY8eOSXR0tHTo0EHWrl0rpaWlkpWVJffee69Nvl27dklISIgMGjRIfvnlF/nll19kwIABEhoaKt9++63H9fNmf+WsTxzlWb58ubz22mtSVlYmmZmZ0qVLF5dl1E9X7RfV+qn2n2o7rGVlZQkAGTlypMu+oebjwoULSn/m2I6BXhNT3ZGEh4cLAFm/fr2Ul5c7LW/mzJkCQD744ANLWlpamgCQKVOmeFxeQzj6IJ25Vkv74Lu6tLQcLW3K+3Vpt7yvpW06XJe2Icu+TNV8KnUTEbnnIy399T1KTXRZlogWdAx/vS4P5okYF4jM+UKkusbz8urnWbLDNn1ztvao2s+OlFZo+do+Y7++k+fsn7d/1j6fsz9v17vzWF1aXqmWZh1EeTMOXC3ztP/cbQ9vxMTECAApKSlxm9fdfmTnzp2WtLy8PAHgMAhw55577hEA8vrrr7vMN3HiRAEgmzZtsqRt2LBBAMjkyZM9rp83+ytPAr0lS5bYpG/evNllGfXTVftFtX6q/afaDmvFxcUCQGJjY5XrSoHN00CPp24DlPlw++9+9ztERUXhqquuwh133IFNmzbZ5Pviiy8AADfccIMlbeDAgQCA9PR0j8vztS9+1h5v6FmXNjBee0y3OgVofj78irq0EV3sy1PNp+rLbO1xwpXel2Gte3vg2/uB/Q8Ci8cBY7sDFdXAC18DS9IaXv6NPW1fj+ulPar2c61oN4wk/huIfk47/dj2GW1ZWaX9+qIj7Z/XP4UK2N6U4+imF0/XO7hT3fNOUdpjflldmq/HgWr/1edse3ijpKQEANC6dWvvC7nM+g7LTp20zszPz/e4nC+//BIAMGHCBJf5du/eDQAYPny4JW3EiBE2yzypX2Pvr2688Uab1+PGjfPo/ar9osrT/jNTaUdUlDaBzOOLWh4Gek3M0fUfjpatWrUKf//739G/f3+ICA4fPoxVq1Zh4sSJNtdhnD59GoC2swwJCUFwcDDatWsHADh+/LjH5TW8fbavT5drj52WAiFPAcFPAu0uBwLHrS4ZKrp8bVvbsLq09kb78lXzqTLXLybSdT5PGAzAkE7A3LFA6r3A65dvxHgz3fX7VHRv7zhdtZ/nfAnctw7o0hbY9wBQ+wxQtVBb5ugmziCD/fNaL2729HS9EaF1zw0O1ttY48Bd/9XnbHt4o0OHDgCA8+fPN7isiIgIy3PzfqW2ttbjcsz7l5iYGJf5zp49CwBo27atJa19e61zHAUY7urX2Pur7t27N+j9qv2iytP+M1Npx7lz5wDUjS9qeRjoNTHzDk6sPt3Mz613fu3bt8eSJUvwww8/4MKFC0hNTbV8e3zxxRct+UwmE1q1aoXKykpUV1ejpqYGtbW1EBHU1NR4XJ63yi9pj1GtbNNNEUCrYKDyaaB6EVDzjPYhL89qz83iLh+1KbU6ulPi4MiRaj5VpstdXnTB+zLcmTFIeyw41/CyOkY4Tlft57cuB5vLJwHd2mtB1Akf1MsdX6+3McaBSv/V52x7eKNnT+3w4MmTJ31XaAOZTCYAQFFRkct85i+X1jdUmAMU8zJPNPb+qmPHjg7TzXc7W++fL1yw3zmo9osqb/vPWTusmcdTjx49GlJFasYY6DUx8zew4uJiS9qZM2dsltVnNBoxduxYvPfee3bvTUlJQVVVFdLS1M8LuipP1et7bV8f0ZqAq6Nt01P6AFU1QNox1+UNvXyqbl9eXdqe497nUzW+t/a46bD6e6IuH0WqqLZf9vRX9mnmAM/kJChwVZ4q1X42f3yFW/1U+ufZ3q9Xla/X6804MJ8CLrlov0y1/xqT+TRcRkaG/ypRz/jx4wHA7SnTxMREAMDevXU7BvPdsSNHjmxQHVT3V+ZTlBUV3kf88fHa+fqCgrrz9Y62h2q/qNavMfvvwAHtdvT6p3nrc3bHMTV/DPSa2AMPPAAAePjhh5Gfn4/8/Hw8/PDDAID777/fkm/o0KFYsWIFDh06hIqKCuTl5eGpp54CANx2222WfIsWLUJ8fDxmzpyJjRs3orS0FPn5+Vi9ejWSkpI8Lk/VQ58CT27VjoSdPK89B4B7rrXNt+hGID4KmPmx9h8jSiu0a61W/wAkrajL98RY7dTg/K3AsRItcDSXaU01n6qF12sB2LwtwCcHgXOVwM+ngQc2OH+P+bqw978DquudDVv4FXD7/4AfCrXALfME8IePtWUPO9lfuypPlWo/T7x8LeJzO7S2puYA/2+nd+v0hK/X6804mNJPe/z3XqCmXj+r9l9juv322wHA5b8+a2oLFy6EyWTCvHnz8Mknn+DcuXP4+eefLfsxs7///e8IDg7GvHnzcPToURw9ehTz589HSEgInnjiCY/X683+ynx92/vvv4/qau++NaWkpADQ9qulpaU4dOgQ5s6da5dPtV9U6+fr/rO2c6c20bzZz5NO8K7bpvfRRx/JqFGjpF27dtKuXTsZNWqUfPTRRzZ50tPT5cEHH5Srr75ajEajmEwmSUxMlOXLl0tVVZVN3oKCApk1a5YkJCRIaGiodO3aVe666y6b2/I9KU/FliMiE98V6fS8SOhTIr1fEvnH1yK1tfZ5C8q0n8ZI+IeWt+s/RO5aLfLtcdt86w6K9PunlqfH/xN554DjOyVV86neEXq0WGTGGpHYJdodssNe0+7gdCb7tMi4t0TaLLIva2+eyB8/FumzTCRsgUjUIpGkFVodvSmvfltcUennkosif1grYlosEvG0yJj/iuzPty/f+rWz567qVT/dm/W6a7/qODA7XynyfxtFOi8VMcy3z6c6Tl3Vs6FSUlIkNjZWamrsb9HG5Tstnf1Z53H2Xm8cPXpUZsyYIbGxsWI0GmXYsGGyYcMGu3xbtmyRpKQkCQ8Pl/DwcBk9erRs27ZNqR71073ZX2VnZ8u4ceOkTZs2XvfDmTNn5Pe//72YTCaJiIiQMWPGyK5duxy+T7VfVOun0n+q7TCrrq6WmJgYSUlJcZu3IWOEmpand90aLv/+DgDXP9RJRESNKzMzE8OGDcPHH3+MSZMm+bs61Mxt2LABU6dOxd69e/m/bnWkvLxcKZ/5lzd46paIKEAMGjQIs2fPxtKlS/1dFdKBpUuXYvbs2QzyWrgQ91mIiKipMMgjX9m1a5e/q0ABgEf0iIiIiHSKgR4RERGRTjHQIyIiItIpBnpEREREOsVAj4iIiEinGOgRERER6RQDPSIiIiKdYqBHREREpFMM9IiIiIh0ioEeERERkU4x0CMiIiLSKQZ6RERERDrFQI+IiIhIpxjoEREREekUAz0iIiIinWKgR0RERKRTDPSIiIiIdIqBHgUkw3ztryWZM2cOkpOTnS4vLi7Gvffei86dOyMoKAgGg6EJa0cNYTAYWuT2aqntbij2W8uWlJSExx9/3GflMdBrYs4mcHOc2BsPA6P/C7R/Foh/Hpj6AbAr19+1anyNEYRmZGRg2bJlLif3o48+ijfffBOLFy/GpUuXICK+rQR5pDnOWSIKfI8//jheeuklZGRk+KQ8Bnrklf/uBya9B4QFA3sfAA4/CiR2Aca+4Zvy5Vntr6WYO3cuTCYTbrrpJqd5vvzySwDAtGnTEBwc3FRVIx8QEQbmpIzjpWWbOHEiOnbsiHnz5vmkPAZ65JUlO7THlbcAvTsCbcKAvyUD/57s33o1Rz/++CO++OILTJkyBUFBzqdkYWEhACA8PLypqkZERE0sKCgIU6ZMweeff44ff/yx4eX5oE7UCKqqqvDKK69g5MiRiI2NRXh4OPr06YMZM2Zgz549NnlzcnIwffp0mEwmGI1GDBs2DJs3b/a6PBUnz2uPldW26X8aavvafJpzZy4wZiUQuRCIXQLMXAuUVtiXa87v7PSoOf3dDKDXS0DYAqD/K8CGQ97lA4CcEmD6asD0HGB8Ghj2OrD5iPN1O6prQ6xevRoAnF6fV/8Uofl1/dOG27dvx5gxYxAZGYnIyEiMHTsWO3bscFmmiGDhwoWIj49HQkICXn75ZY/qrjquPLlkYdOmTejfvz/CwsLQp08frFq1qkH5fD0/VLdH/WWulu/cudOy7WJjYzFz5kyUlpZ61V5Vubm5mDlzJjp16oSIiAiMGDECq1atssunOq7WrVtnqV/Pnj3x9ttvO1yvyvbwNXM/vfvuu+jVqxfCwsLQv39/bNiwwS7vrl27cOutt6Jz586Wvp4/fz4qKyudlutsHnm63w3k8aLSXsC3882T7aYyTlX7LxA+f0ePHg0AWLNmjatNoqasrEzS0tIkLSVrAqYAABgMSURBVC1NqPEBEABu02+//XYBIHPnzpXjx49LZWWlHD16VD788ENJTEy05MvNzZXo6Gjp1q2bZGRkSEFBgSQnJ0tISIhkZmZ6XJ6q698QwTyRds+I3L9O5MPvREorHLR3nvY3eoXIwSKRsxdF7lunpc1a76KfLr/PWfrgV0WOnBE5Wiwy6FWR4CdF0vM9z5dbIhL9nEi3F0UyCkQKykSS/ysS8qRI5gnP6uatkSNHCgA5dOiQy3zOxo6IyK5duyQkJEQGDRokv/zyi/zyyy8yYMAACQ0NlW+//dZpWcuXL5fXXntNysrKJDMzU7p06eJR3VXHleq4z8zMlJCQEOnfv78cPnxYcnJyZOjQoV7na8z54Wp7qOY1p48ePVoOHjwoZ8+elfvuu08AyKxZszxur6pjx45JdHS0dOjQQdauXSulpaWSlZUl9957r00+1XG1d+9eCQoKkkGDBsnRo0clOztbBgwY4PX28DVzPQYPHixHjhyRo0ePyqBBgyQ4OFjS09Nt8l5//fWydetWKS8vl1OnTsnDDz8sAOz6xrpcZ/PI2/1uoI0X1fb6er6pbjfVcaraf4Hw+ZuVlSUAZOTIkXbLLly4oPRnju0Y6DUx1Q+88PBwASDr16+X8vJyp+XNnDlTAMgHH3xgSUtLSxMAMmXKFI/LU3W0WGT463VBD+aJGBeIzPlCpLrGql2Xl+08VpeWV6qldXnBefnuAr1Nh+vSNh3W0m770PN8M9dqaR98V5eWlqOlTXnfs7p5KyYmRgBISUmJy3yudtITJ04UALJp0yZL2oYNGwSATJ482WlZS5YssUnfvHmzR3VXHVeefsH59NNPLWmbNm3yOl9jzg9fBno7d+60pOXl5QkAm6Bbtb2q7rnnHgEgr7/+ust8quPqlltucZrPm+3ha+Z6WNfP3H+33Xaby/eWlpYKAGnbtq3Tcp3NI2/3u4E2Xuqv31l7fT3fVLeb6jhV7b9A+PwtLi4WABIbG2u3jIFegFP9wBs3bpwlLTg4WK688kqZNm2abNy40eZ9cXFxAkAKCwstaeYdU9euXT0uzxO1tSL780UWp4qMXVkXAD2z3apdl9MuVNm+D/NEguY7L9tdoHfqQl1a0XktrfuLnueLW6KlFZ6vSyut0NK6/sOzunkrNDRUAMilS5dc5nO1k+7YsaMAkFOnTlnSCgsLBYBER0c7LWvfvn0NqrvquFId9926dRMAUlRUZEkrKiryOl9jzg9fBnoXLtQN1NraWgEgQUFBHrdXlblffv31V5f5VMdVQkKC03zebA9fM9fDun7m/uvevbslraamRlasWCEjRowQk8lkeR8AMRgMTst1No+83e8G2nipv35n7fX1fFPdbqrjVLX/AuHz99KlSwJAWrVqZbeMgV6AMxgMTiew9Y6kuLhY/v73v0v//v0lKCjIZoezbNkyS76QkBDL4AkODpagoCDLOqwHrmp5DfH6HucBl1173QRL7t5XVV2XVlVdd0TR03whT2ppwU9qf0HzRQzzXQeivg70YmNjBWjYEb3g4GABIFVVdRF1VVWVAJCQkBCnZZ0+fbpBdVcdV6qBXlhYmNN2eJOvMeeHLwM9X/WLKnO/VFQ4uN7Ciuq4MhqNPt0evmauh6P6GY1GS9pjjz0mAOTWW2+VnJwcqa2tddnP7uaRt/vdQBsv9dfjrL2+nm+q2011nKr2XyB8/pqP6MXFxdktY6AX4CIjIwWA1NbWWtLM3ygiIyMdvufixYuSmpoqEyZMEADSuXNny7K4uDhp1aqVVFdXO3yvp+U1xPlKLQAKW1CX1liBnqMjddZH4FTzxS0RafWU7elmd3wd6I0aNUoASFZWluv1uthJu/pGazKZPCrLW67GlXnnZj3uz58/b1cP85EI62/Iro7oucvXmPOjKQM91faq8sURPetxZa6fyhE9T7eHL5jr4ejIkPWRlw4dOggAOXGi7gLd3Nxcj7efI57sdwNtvLhbv5mv55vqdlMdp95sR399/h48eFAAyKhRo+yWeRro8a7bJta9e3cA2n85MDtz5ozNsvqMRiPGjh2L9957z+69KSkpqKqqQlpamnIdXJWn6umv7NMKzmmPpgiPi/PY3ry65/vztcdrO3meL6UPUFUDpB1TX3dUmPZYUe06n6obb7wRABr045iJiYkAgL1791rSzHdzjRw5sgG1U+dqXMXHxwMACgoKLGmO2jt8+HAAwO7duy1pju5KU83XmPMjKioKAFBR4eD2cR9Tba+q8ePHA9DuzHRFdVwNHardbr9v3z6X9fNme/jyh6mt27F//34AwLXXXmtJ0z7zbX/C6PPPP/fJun2x31Xl6/GiqrHmm7vt1pj7P399/h44cABA3edDg/CIXtP617/+JQDkrrvukry8PMnLy5Pp06cLoN3JZDZkyBD5z3/+I1lZWXLx4kU5fvy4PPTQQwJA7r77bku+48ePS3x8vCQkJMinn34qZ8+elby8PFm1apXNNwHV8lSZb2r4/qTIxUvaHatJK7T0F9Js8zXGET3z3bQ5xSLX/ks7zbovz/N8x0tF4p8XSfiHyKeHtLuC80pFVn0vMuo/jut2w5ta2Sv3i1zy4EigMz/++KMAkAceeMBlPrj41vn1119LcHCw3V1nISEh8s0333hUlidUx9Wf/vQnASD33XefnD17VrKysiQ5OdmuHhkZGRIcHCx9+/aVQ4cOybFjxyQxMdHrfI05P2644QYBICtXrvT6+krVdNX2qsrJyRGTySQdOnSQjz/+WMrKyuTw4cM2dx6KqI+r9PR0CQoKkmuvvVZycnIkOztbBg4c6PX2MKupqbE7/eYNcz3Md2/m5OTItddeK0FBQTbXm82YMUMAyJw5c6SsrEy2b98uvXv39vqInrf73UAbL+7Wb+br+aa63VTHqWr/BcLn76xZswSA/PDDD3bLeOq2Gfjoo49k1KhR0q5dO2nXrp2MGjVKPvroI5s86enp8uCDD8rVV18tRqNRTCaTJCYmyvLly22uQxARKSgokFmzZklCQoKEhoZK165d5a677rK5rdyT8lTszRP548cifZZpp2qjFmmB3jsHbPN5EuhZ38Hr6M86z1vp2rWAoU+J9P2nyCcHHZflLp+I9pMqs9ZrwV7oU9qp3btWi3x73HHbs0+LjHtLpM0i353GTUlJkdjYWKmpcR45utvJbtmyRZKSkiQ8PFzCw8Nl9OjRsm3bNq/KUqU6rs6cOSO///3vxWQySUREhIwZM0Z27drlsB7r16+Xvn37SmhoqPTu3VvWrl0rgP01XKr5Gmt+ZGdny7hx46RNmzYO22FOc/Znnae+hvSLqqNHj8qMGTMkNjZWjEajDBs2TDZs2GCXT3VcrVu3Tvr16yehoaHSo0cPeeeddxy2Q2V7mO3cudMSeDWEuR5vvfWWdO/eXUJDQ6Vv377yySef2OQrKSmRP/zhDzbjdP/+/V4Hep6Mq0AfLyrtFfHtfFPdbiJq41S1//z9+VtdXS0xMTGSkpLisI89DfQMl38HB4DzH2wlChTmHyd29+/RVPMFiszMTAwbNgwff/wxJk2a5O/qBJRTp04hJiYG0dHRKCoqanA+vWgJ7Z0zZw5WrVqFgwcPIjIy0utyzKd+5fKp2ZaoOY6XlrrdNmzYgKlTp2Lv3r0YPHiw3fLy8nKlctLT0wHwP2MQBYRBgwZh9uzZWLp0qb+rEnDMOyt319qo5tOLltDe9evXY/ny5Q0K8kjTEsaLXixduhSzZ892GOR5g4EeUYBYunQpdu7c6e9q+N2ECROQmpqKc+fO4fvvv8ecOXMQGhqKuXPnepVPL1paewHg8OHDmDyZ/0DbGy1xvOjFrl27fPqln4EeEQWUxx57DEuWLEFCQgKSkpJgMpmwbds2jBgxwqt8etHS2ksNw/FCZrxGj4iIiKiZ4DV6RERERASAgR4RERGRbjHQIyIiItIpBnpEREREOsVAj4iIiEinGOgRERER6RQDPSIiIiKdYqBHREREpFMM9IiIiIh0ioEeERERkU4x0CMiIiLSKQZ6RERERDrFQI+IiIhIpxjoEREREekUAz0iIiIinWKgR81W8UXg3k+AzkuBoCcBw3x/14haojlz5iA5Odnp8uLiYtx7773o3LkzgoKCYDAYmrB2gcuTfjEYDC2q35q6vUlJSXj88cebbH3UtEL8XYGWxjx5RUQpPVDVD6piWwNXmoBHRgG39G2aOjz6GfBuBvDWFGDGICCYX1vcMm+3Pw8FVtx8+fk6YOV+7bk86596NVcZGRlYtmwZPvnkE6d5Hn30Ubz77rt46623MGPGDAQHBzdhDQNXS+uXQN7HP/7445g6dSruuOMODB482N/VIR/jRyM1iDwL1D4DpP0JqK4FpnwAvPpt06z7y2ztcdo1DPI89XWu1fNjfqtGszd37lyYTCbcdNNNTvN8+eWXAIBp06bpPpjxhCf9IiIBGSA1lqZu78SJE9GxY0fMmzevydZJTcdQVlYmmZmZAIAhQ4b4uTpERERE1FDp6ekAeESPiIiISLccXqMnIjhz5gzKyspQXV3d1HUiIiIdCgkJQZs2bdCxY8cWdXMFkT85DPROnz6NkpKSpq4LERHpWHV1NYqLiyEiiI6O9nd1iFoEh6duz50719T1ICKiFoKfMURNh9foEREREemUw0AvKiqqqetBREQtBD9jiJqOw2v0TCYTDAYDb8YgIiKfsb4Zg4iahsNAz2AwwGQywWQyNXV9iIiIiMhHeI0eERERkU7ZHNEz/4oyERERETV/lkAvOTnZn/UgIiIiIh/6+uuveeqWiIiISK8Y6BERERHpFAM9IiIiIp1ioEdERESkUwz0iIiIiHSKgR4RERGRTjHQIyIiItIpBnpEREREOsVAj4iIiEinLP8Zo+pCrj/rQUREREQ+xiN6RERERDrFQI+IiIhIpxjoEREREekUAz0iIiIinWKgR0RERKRTDPSIiIiIdIqBHhEREZFOMdAjIiIi0ikGekREREQ6xUCPiIiISKcY6BERERHpFAM9IiIiIp1ioEdERESkUwz0iIiIiHSKgR4RERGRTjHQIyIiItKpEPOTVpFd/VkPIiIiIvKpX3lEj4iIiEivGOgRERER6RQDPSIiIiKdYqBHREREpFMM9IiIiIh0ioEeERERkU4x0CMiIiLSKQZ6RERERDrFQI+IiIhIpxjoEREREekUAz0iIiIinWKgR0RERKRTDPSIiIiIdIqBHhEREZFOMdAjIiIi0ikGekREREQ6xUCPiIiISKcY6BERERHpFAM9IiIiIp1ioEdERESkUwz0iIiIiHSKgR4RERGRTjHQIyIiItIpBnpEREREOsVAj4iIiEinGOgRERER6RQDPSIiIiKdYqBHREREpFMM9IiIiIh0ioEeERERkU4x0CMiIiLSKQZ6RERERDrFQI+IiIhIpxjoEREREekUAz0iIiIinWKgR0RERKRTDPSIiIiIdIqBHhEREZFOMdAjIiIi0ikGekREREQ6xUCPiIiISKcY6BERERHpFAM9IiIiIp1ioEdERESkUwz0iIiIiHSKgR4RERGRTjHQIyIiItIpBnpEREREOsVAj4iIiEinGOgRkVtvvvkm3nzzTX9Xg1qACxcuoLa21t/VININBnpERM1USUkJiouLUVNT4++q+MymTZtw/vx5f1eDSDdC/F2BlsR8ROSPf/yj12Xs2bMHP/30k0fl1D8S05D1U/O2efNm5OXl4YorrsD48eP9XR1qoE2bNqGqqgq33HIL2rdv7+/qNJmamhps27YNw4YNa1HtJvIGA71m5NChQ5YgzxPmwI6n3twrKipyenTEaDQ26w+V2tpanDx5EgBw8uRJ1NbWIiio5R3U1/M21quLFy/i0qVLaNOmDQBg586dCAoKQrt27fxcMzWXLl0CAPzwww9o06YNOnfujLCwsBY5/1qaqqoqtGrVyq91YKCnoLKyEqmpqSgqKsIVV1yBnJwcAPYBVJ8+fXDs2DG0b98e1113HSIiImyWm3lzZC8/Px/ffvstevXqhSNHjjS4TeRYdnY2Dh8+7HDZqFGjmnUQUFhYiOrqasTExKCoqAhFRUWIi4sDABQXF2P//v04deoUamtr0bFjRwwcOBCdO3e2KyczMxMHDhxAYmIi+vbt29TNaDA9b2O92rx5M86ePQuTyYSoqCiUlJRgwoQJMBgM/q6akszMTGRnZyMkJAQigj179mDEiBHo1auXv6tGjeyjjz7CVVddhX79+iEsLMwvdWCgpyA9PR35+flITEyEiFgCvfo6duyIjh07Yvfu3di/fz/GjBkDwD4g9PTUaUlJCb766iv06NEDycnJDPQa0cCBA5GdnW13MXjr1q3Rp08fP9XKNwoKCgAA/fr1Q1FREfLz8y2B3ldffYWysjJMnDgRHTt2RHFxMTIzM+0CvePHj+PAgQO45pprmmWQBzTvbfzrr79ajsoCsByZ/PHHHy0fIpGRkejXr59f6tcYfv31V1RXV+Ouu+5Cbm4uTpw4gXHjxiE0NNTfVVNirvOQIUNw5ZVXQkSwd+9eHD16FFFRUYiNjfV3FakRXbp0CZmZmfjpp5/Qr18/vwR8DPQUHD9+HADQo0cPy7cxR7p37w4A2L17t+VDVZWr6+i2bNmCrl27Ijk5udl8g22uWrdujd69e9sd8RkwYECzP82Sn5+P0NBQdO3aFaGhoSgoKMCQIUMAANXV1QC0U0s9evRAp06dMG7cOLsyUlNTER8fj2HDhjVp3X2pOW/jEydOOLx8Izs72/LcZDI1+0CvuroahYWFiI2NRWZmJgYOHIiQkBD07NkTPXv29Hf1PHLmzBkEBQXhyiuvREZGBqKiojB8+HC8//77KC8v93f1qIn4M+BjoKfg4sWLAOD2PLv18oqKCp+t//z58zhy5Ijdkbw333yTN1Y0gvpHfJrDkR53KisrcebMGYgI3n77bQDA6dOnUVlZibCwMIwdOxZ79uxBbm4ucnNzERwcjFGjRqF379425dTU1OD06dO4ePEiwsPD/dAS32iu29h8BNYsKysLtbW16NmzJ4xGIwDtiF5zt2fPHpw+fRphYWEwGAzNLrizFhYWhpAQ7aO2rKwMQUFBMBgMCAoK8tupPPIf64Bv7NixSEhIaPR1MtBTYDQaUV5ejqqqKoiI03xVVVU27/GEq4Ct/jJf3L1LztU/4tMcjvS4c+LECYgIBg8ejMGDByM9PR3fffcdTpw4gW7duiE+Ph4333wzKioqcPjwYaSnp2Pv3r12gd64cePw5Zdf4sCBA0hKSvJTaxquuW7jrl27omvXrpbX2dnZqKqqwoABA3R1bWFZWRmmTZuGU6dOIeL/b++OXZKJ4ziOf+Qa9BCyJK/MwVGEMCiEBgla+hv6/1pbmsKlwU060dXBpiyoCE5Skeie4cGj58Hshsvrfr1f8w1f+Qp++P2+X8+2E32TkUqlNBqN9PDwoOPjY0l/F+ts2w6WNPC7OI6j/f39hTPQ34GgF0KpVFK/39dgMFj63MfZvUUNzGQymkwm8jwv2B6LEgEwOvMTH9u2E3HS85W7uztJ0s7OjiSpWCyq1+tpOByqXC6r2WyqVqspn8+rWCzKdd2FM1C7u7tyHEf9fl/VajXR4cK0HpukXq9rbW0t+L5+9gfKSQjn1WpVr6+vurq60vb2tt7e3vT4+KhGo/FPaIf5Vh3w5gh6IRweHmo0Gsl13aUNen5+1u3trRzHCWafPjo4OFCn09HFxYV8319ZIIti6/e3mZ/45PP5RPyYfGU4HMqyLG1tbUmSCoWCLMsKAuDe3p663a6enp70/v6uQqHw6RxerVZTs9lUu93W6enpyj5D1EzrsUmur69DPXdycqJyufy9xUSgUqmoUqnIdV3lcjkdHR0pm83GXRZWJK6AN5fyPM/vdrtqNBqxFJA0s9lM5+fnymQyOjs7k0RwMtV4PFY6nSYEGCzpPX55eZHv+1pfX5dlWXGXA+A/9/f3wcl0HFqtFq9AC+vm5kbT6TRYiGAl3ny2bSc2ACCcpPd4Y2NDm5ubhDzgh4oz5M1xdRtSNpvV5eWlZrOZSqWS6vV63CUBAAAsRdALaT5jsQhXtgAA4CdK7p0FAAAAliLoAQAAGIqgBwAAYCiCHgAAgKEIegAAAIYi6AEAABiKoAcAAGAogh4AAIChCHoAAACGCt6M0Wq14qwDAAAAEUt5nufHXQQAAACix9UtAACAof4AgR/at3De3OwAAAAASUVORK5CYII=;" vertex="1" parent="1">
          <mxGeometry x="102.1" y="75" width="55.81" height="50" as="geometry" />
        </mxCell>
        <mxCell id="NUPVtUFg2VGFcALaYpRz-40" value="" style="shape=image;verticalLabelPosition=bottom;labelBackgroundColor=default;verticalAlign=top;aspect=fixed;imageAspect=0;editableCssRules=.*;image=data:image/svg+xml,PHN2ZyBmaWxsPSJub25lIiB2aWV3Qm94PSIxNS4wOTc1OTk5ODMyMTUzMzIgMTUuNzQ3MzAwMTQ4MDEwMjU0IDE0OS44MzY0MTA1MjI0NjA5NCAxNDguNDk5Njk0ODI0MjE4NzUiIGhlaWdodD0iMTQ4LjQ5OTY5NDgyNDIxODc1IiB3aWR0aD0iMTQ5LjgzNjQxMDUyMjQ2MDk0IiB4bWxucz0iaHR0cDovL3d3dy53My5vcmcvMjAwMC9zdmciPiYjeGE7ICA8c3R5bGU+JiN4YTsgICAgOnJvb3QgeyYjeGE7ICAgICAgZmlsbDogIzAwMDsmI3hhOyAgICB9JiN4YTsgICAgQG1lZGlhIChwcmVmZXJzLWNvbG9yLXNjaGVtZTogZGFyaykgeyYjeGE7ICAgICAgOnJvb3QgeyYjeGE7ICAgICAgICBmaWxsOiAjZmZmOyYjeGE7ICAgICAgfSYjeGE7ICAgIH0mI3hhOyAgPC9zdHlsZT4mI3hhOyAgPHBhdGggZD0iTTEwMS4yMjggMTY0LjI0N0M5Ni4yNzc2IDE2NC4yNDcgOTEuNTc1MSAxNjMuMzA3IDg3LjEyMDEgMTYxLjQyNkM4Mi42NjUxIDE1OS41NDUgNzguNzA1MSAxNTYuOTIxIDc1LjI0MDEgMTUzLjU1NUM3MS40NzgxIDE1NC44NDIgNjcuNTY3NiAxNTUuNDg2IDYzLjUwODYgMTU1LjQ4NkM1Ni44NzU2IDE1NS40ODYgNTAuNzM3NiAxNTMuODUyIDQ1LjA5NDYgMTUwLjU4NUMzOS40NTE2IDE0Ny4zMTggMzQuODk3NiAxNDIuODYzIDMxLjQzMjYgMTM3LjIyQzI4LjA2NjYgMTMxLjU3NyAyNi4zODM2IDEyNS4yOTEgMjYuMzgzNiAxMTguMzYxQzI2LjM4MzYgMTE1LjQ5IDI2Ljc3OTYgMTEyLjM3MSAyNy41NzE2IDEwOS4wMDVDMjMuNjExNiAxMDUuMzQyIDIwLjU0MjYgMTAxLjEzNSAxOC4zNjQ2IDk2LjM4MjhDMTYuMTg2NiA5MS41MzE4IDE1LjA5NzYgODYuNDgyOCAxNS4wOTc2IDgxLjIzNThDMTUuMDk3NiA3NS44ODk4IDE2LjIzNjEgNzAuNzQxOCAxOC41MTMxIDY1Ljc5MThDMjAuNzkwMSA2MC44NDE4IDIzLjk1ODEgNTYuNTg0OCAyOC4wMTcxIDUzLjAyMDhDMzIuMTc1MSA0OS4zNTc4IDM2Ljk3NjYgNDYuODMzMyA0Mi40MjE2IDQ1LjQ0NzNDNDMuNTEwNiAzOS44MDQzIDQ1Ljc4NzYgMzQuNzU1MyA0OS4yNTI2IDMwLjMwMDNDNTIuODE2NiAyNS43NDYzIDU3LjE3MjYgMjIuMTgyMyA2Mi4zMjA2IDE5LjYwODNDNjcuNDY4NiAxNy4wMzQzIDcyLjk2MzEgMTUuNzQ3MyA3OC44MDQxIDE1Ljc0NzNDODMuNzU0MSAxNS43NDczIDg4LjQ1NjYgMTYuNjg3OCA5Mi45MTE2IDE4LjU2ODhDOTcuMzY2NiAyMC40NDk4IDEwMS4zMjcgMjMuMDczMyAxMDQuNzkyIDI2LjQzOTNDMTA4LjU1NCAyNS4xNTIzIDExMi40NjQgMjQuNTA4OCAxMTYuNTIzIDI0LjUwODhDMTIzLjE1NiAyNC41MDg4IDEyOS4yOTQgMjYuMTQyMyAxMzQuOTM3IDI5LjQwOTNDMTQwLjU4IDMyLjY3NjMgMTQ1LjA4NSAzNy4xMzEzIDE0OC40NTEgNDIuNzc0M0MxNTEuOTE2IDQ4LjQxNzMgMTUzLjY0OCA1NC43MDM4IDE1My42NDggNjEuNjMzOEMxNTMuNjQ4IDY0LjUwNDggMTUzLjI1MiA2Ny42MjMzIDE1Mi40NiA3MC45ODkzQzE1Ni40MiA3NC42NTIzIDE1OS40ODkgNzguOTA5MyAxNjEuNjY3IDgzLjc2MDNDMTYzLjg0NSA4OC41MTIzIDE2NC45MzQgOTMuNTExOCAxNjQuOTM0IDk4Ljc1ODhDMTY0LjkzNCAxMDQuMTA1IDE2My43OTYgMTA5LjI1MyAxNjEuNTE5IDExNC4yMDNDMTU5LjI0MiAxMTkuMTUzIDE1Ni4wMjQgMTIzLjQ1OSAxNTEuODY2IDEyNy4xMjJDMTQ3LjgwNyAxMzAuNjg2IDE0My4wNTUgMTMzLjE2MSAxMzcuNjEgMTM0LjU0N0MxMzYuNTIxIDE0MC4xOSAxMzQuMTk1IDE0NS4yMzkgMTMwLjYzMSAxNDkuNjk0QzEyNy4xNjYgMTU0LjI0OCAxMjIuODU5IDE1Ny44MTIgMTE3LjcxMSAxNjAuMzg2QzExMi41NjMgMTYyLjk2IDEwNy4wNjkgMTY0LjI0NyAxMDEuMjI4IDE2NC4yNDdaTTY0LjU0ODEgMTQ1LjY4NUM2OS40OTgxIDE0NS42ODUgNzMuODA0NiAxNDQuNjQ1IDc3LjQ2NzYgMTQyLjU2NkwxMDUuMzg2IDEyNi41MjhDMTA2LjM3NiAxMjUuODM1IDEwNi44NzEgMTI0Ljg5NSAxMDYuODcxIDEyMy43MDdWMTEwLjkzNkw3MC45MzM2IDEzMS41NzdDNjguNzU1NiAxMzIuODY0IDY2LjU3NzYgMTMyLjg2NCA2NC4zOTk2IDEzMS41NzdMMzYuMzMzMSAxMTUuMzkxQzM2LjMzMzEgMTE1LjY4OCAzNi4yODM2IDExNi4wMzQgMzYuMTg0NiAxMTYuNDNDMzYuMTg0NiAxMTYuODI2IDM2LjE4NDYgMTE3LjQyIDM2LjE4NDYgMTE4LjIxMkMzNi4xODQ2IDEyMy4yNjEgMzcuMzcyNiAxMjcuOTE0IDM5Ljc0ODYgMTMyLjE3MUM0Mi4yMjM2IDEzNi4zMjkgNDUuNjM5MSAxMzkuNTk2IDQ5Ljk5NTEgMTQxLjk3MkM1NC4zNTExIDE0NC40NDcgNTkuMjAyMSAxNDUuNjg1IDY0LjU0ODEgMTQ1LjY4NVpNNjYuMDMzMSAxMjEuNDc5QzY2LjYyNzEgMTIxLjc3NiA2Ny4xNzE2IDEyMS45MjUgNjcuNjY2NiAxMjEuOTI1QzY4LjE2MTYgMTIxLjkyNSA2OC42NTY2IDEyMS43NzYgNjkuMTUxNiAxMjEuNDc5TDgwLjI4OTEgMTE1LjA5NEw0NC41MDA2IDk0LjMwMzhDNDIuMzIyNiA5My4wMTY4IDQxLjIzMzYgOTEuMDg2MyA0MS4yMzM2IDg4LjUxMjNWNTYuMjg3OEMzNi4yODM2IDU4LjQ2NTggMzIuMzIzNiA2MS44MzE4IDI5LjM1MzYgNjYuMzg1OEMyNi4zODM2IDcwLjg0MDggMjQuODk4NiA3NS43OTA4IDI0Ljg5ODYgODEuMjM1OEMyNC44OTg2IDg2LjA4NjggMjYuMTM2MSA5MC43Mzk4IDI4LjYxMTEgOTUuMTk0OEMzMS4wODYxIDk5LjY0OTggMzQuMzAzNiAxMDMuMDE2IDM4LjI2MzYgMTA1LjI5M0w2Ni4wMzMxIDEyMS40NzlaTTEwMS4yMjggMTU0LjQ0NkMxMDYuNDc1IDE1NC40NDYgMTExLjIyNyAxNTMuMjU4IDExNS40ODQgMTUwLjg4MkMxMTkuNzQxIDE0OC41MDYgMTIzLjEwNyAxNDUuMjM5IDEyNS41ODIgMTQxLjA4MUMxMjguMDU3IDEzNi45MjMgMTI5LjI5NCAxMzIuMjcgMTI5LjI5NCAxMjcuMTIyVjk1LjA0NjNDMTI5LjI5NCA5My44NTgzIDEyOC43OTkgOTIuOTY3MyAxMjcuODA5IDkyLjM3MzNMMTE2LjUyMyA4NS44MzkzVjEyNy4yNzFDMTE2LjUyMyAxMjkuODQ1IDExNS40MzQgMTMxLjc3NSAxMTMuMjU2IDEzMy4wNjJMODUuMTg5NiAxNDkuMjQ5QzkwLjA0MDYgMTUyLjcxNCA5NS4zODY2IDE1NC40NDYgMTAxLjIyOCAxNTQuNDQ2Wk0xMDYuODcxIDEwMC4wOTVWNzkuODk5M0w5MC4wOSA3MC4zOTUzTDczLjE2MTEgNzkuODk5M1YxMDAuMDk1TDkwLjA5IDEwOS41OTlMMTA2Ljg3MSAxMDAuMDk1Wk02My41MDg2IDUyLjcyMzhDNjMuNTA4NiA1MC4xNDk4IDY0LjU5NzYgNDguMjE5MyA2Ni43NzU2IDQ2LjkzMjNMOTQuODQyMSAzMC43NDU4Qzg5Ljk5MTEgMjcuMjgwOCA4NC42NDUxIDI1LjU0ODMgNzguODA0MSAyNS41NDgzQzczLjU1NzEgMjUuNTQ4MyA2OC44MDUxIDI2LjczNjMgNjQuNTQ4MSAyOS4xMTIzQzYwLjI5MTEgMzEuNDg4MyA1Ni45MjUxIDM0Ljc1NTMgNTQuNDUwMSAzOC45MTMzQzUyLjA3NDEgNDMuMDcxMyA1MC44ODYxIDQ3LjcyNDMgNTAuODg2MSA1Mi44NzIzVjg0Ljc5OThDNTAuODg2MSA4NS45ODc4IDUxLjM4MTEgODYuOTI4MyA1Mi4zNzExIDg3LjYyMTNMNjMuNTA4NiA5NC4xNTUzVjUyLjcyMzhaTTEzOC45NDcgMTIzLjcwN0MxNDMuODk3IDEyMS41MjkgMTQ3LjgwNyAxMTguMTYzIDE1MC42NzggMTEzLjYwOUMxNTMuNjQ4IDEwOS4wNTUgMTU1LjEzMyAxMDQuMTA1IDE1NS4xMzMgOTguNzU4OEMxNTUuMTMzIDkzLjkwNzggMTUzLjg5NiA4OS4yNTQ4IDE1MS40MjEgODQuNzk5OEMxNDguOTQ2IDgwLjM0NDggMTQ1LjcyOCA3Ni45Nzg4IDE0MS43NjggNzQuNzAxOEwxMTMuOTk5IDU4LjY2MzhDMTEzLjQwNSA1OC4yNjc4IDExMi44NiA1OC4xMTkzIDExMi4zNjUgNTguMjE4M0MxMTEuODcgNTguMjE4MyAxMTEuMzc1IDU4LjM2NjggMTEwLjg4IDU4LjY2MzhMOTkuNzQyNiA2NC45MDA4TDEzNS42OCA4NS44MzkzQzEzNi43NjkgODYuNDMzMyAxMzcuNTYxIDg3LjIyNTMgMTM4LjA1NiA4OC4yMTUzQzEzOC42NSA4OS4xMDYzIDEzOC45NDcgOTAuMTk1MyAxMzguOTQ3IDkxLjQ4MjNWMTIzLjcwN1pNMTA5LjA5OCA0OC4yNjg4QzExMS4yNzYgNDYuODgyOCAxMTMuNDU0IDQ2Ljg4MjggMTE1LjYzMiA0OC4yNjg4TDE0My44NDcgNjQuNzUyM0MxNDMuODQ3IDY0LjA1OTMgMTQzLjg0NyA2My4xNjgzIDE0My44NDcgNjIuMDc5M0MxNDMuODQ3IDU3LjMyNzMgMTQyLjY1OSA1Mi44MjI4IDE0MC4yODMgNDguNTY1OEMxMzguMDA2IDQ0LjIwOTggMTM0LjY5IDQwLjc0NDggMTMwLjMzNCAzOC4xNzA4QzEyNi4wNzcgMzUuNTk2OCAxMjEuMTI3IDM0LjMwOTggMTE1LjQ4NCAzNC4zMDk4QzExMC41MzQgMzQuMzA5OCAxMDYuMjI3IDM1LjM0OTMgMTAyLjU2NCAzNy40MjgzTDc0LjY0NjEgNTMuNDY2M0M3My42NTYxIDU0LjE1OTMgNzMuMTYxMSA1NS4wOTk4IDczLjE2MTEgNTYuMjg3OFY2OS4wNTg4TDEwOS4wOTggNDguMjY4OFoiLz4mI3hhOzwvc3ZnPg==;" vertex="1" parent="1">
          <mxGeometry x="539.8" y="85" width="30.41" height="30" as="geometry" />
        </mxCell>
      </root>
    </mxGraphModel>
  </diagram>
</mxfile>
